<?xml version="1.0" encoding="utf-8"?>
<!-- Generator: Adobe Illustrator 19.1.0, SVG Export Plug-In . SVG Version: 6.00 Build 0)  -->
<svg version="1.1" id="Layer_1" xmlns="http://www.w3.org/2000/svg" xmlns:xlink="http://www.w3.org/1999/xlink" x="0px" y="0px"
	 viewBox="-384 671.3 630.3 258.7" style="enable-background:new -384 671.3 630.3 258.7;" xml:space="preserve">
<style type="text/css">
	.st0{enable-background:new    ;}
	.st1{fill:#302F2A;}
	.st2{fill:#F26441;}
</style>
<g>
	<g>
		<g>
			<g class="st0">
				<path class="st1" d="M-254.8,784.7v-5.5l6.1-0.5c0.8-0.1,1-0.4,1-1.4v-36h-5.3c-0.6,0-0.8,0.1-0.9,0.8l-1,6.1h-7.4v-14.6h39.6
					v14.6h-7.3l-1-6.1c-0.1-0.7-0.4-0.8-1-0.8h-5.3v36c0,1,0.1,1.3,1,1.3l6.6,0.6v5.5H-254.8z"/>
			</g>
			<g class="st0">
				<path class="st1" d="M-218.6,784.7v-5l3.4-0.4c0.8-0.1,0.8-0.3,0.8-1.3v-32.6c0-1-0.1-1.1-0.8-1.3l-3.4-0.4v-5h29.4v12.8
					l-6.7-0.3l-0.8-4.8c-0.1-0.6-0.3-0.8-0.9-0.8h-7.4v12.5h12.2v7.1h-12.2v12.8h8.5c0.6,0,0.8-0.1,0.9-0.7l0.8-5.6h6.7v13.1H-218.6
					z"/>
				<path class="st1" d="M-163.4,784.7v-5l3.7-0.6l-6.7-11.4l-5.9,11.4l3.6,0.6v5h-15.7v-5l3.2-0.7c0.6-0.1,1.1-0.5,1.5-1.2
					l9.2-16.3l-9.8-16c-0.4-0.6-0.6-0.9-1.3-1.1l-2.9-0.7l0.6-5h17.7v5l-3.8,0.5l6.3,11.2l6.5-11.2l-3.7-0.5l0.6-5h14.4v5l-2.7,0.7
					c-0.7,0.2-1,0.6-1.4,1.2l-9.2,15.9l10.1,16.3c0.4,0.7,0.8,1,1.4,1.2l3,0.7v5H-163.4z"/>
				<path class="st1" d="M-136,784.7v-5l5.5-0.4c0.8-0.1,0.9-0.3,0.9-1.3v-32.4h-4.8c-0.6,0-0.8,0.1-0.8,0.7l-0.9,5.5h-6.7v-13.2
					h35.7v13.2h-6.6l-0.9-5.5c-0.1-0.6-0.3-0.7-0.9-0.7h-4.8V778c0,0.9,0.1,1.1,0.9,1.2l6,0.5v5H-136z"/>
				<path class="st1" d="M-103.1,784.7v-5l3.4-0.4c0.8-0.1,0.8-0.3,0.8-1.3v-32.6c0-1-0.1-1.1-0.8-1.3l-3.4-0.4v-5h29.4v12.8
					l-6.7-0.3l-0.8-4.8c-0.1-0.6-0.3-0.8-0.9-0.8h-7.4v12.5h12.2v7.1h-12.2v12.8h8.5c0.6,0,0.8-0.1,0.9-0.7l0.8-5.6h6.7v13.1H-103.1
					z"/>
				<path class="st1" d="M-43.7,784.7l-5.1-16c-0.7-2.2-1.3-2.9-2.8-2.9h-2.5V778c0,1,0.1,1.1,0.9,1.3l2.9,0.5v5h-17.4v-5l3.4-0.4
					c0.8-0.1,0.8-0.3,0.8-1.3v-32.6c0-1-0.1-1.1-0.8-1.3l-3.4-0.4v-5h19c9.8,0,12.9,6,12.9,12.4c0,6.9-3.1,10-7.2,12.1
					c2.1,0.9,3,2.5,3.9,5.5l3.1,9c0.3,0.9,0.7,1.3,1.7,1.5l3,0.6v5H-43.7z M-51.8,759.3c3.6,0,6.3-1.1,6.3-7.3c0-5-2-6.4-5.9-6.4
					h-2.7v13.7H-51.8z"/>
				<path class="st1" d="M-7.4,784.7v-5l4.4-0.6l-1.7-6.6h-13l-1.6,6.6l4.3,0.6v5h-16v-5l2.4-0.7c0.6-0.2,1.1-0.4,1.3-1.2l11.9-39.2
					h10.7L7,778c0.3,0.8,0.6,0.9,1.3,1.1l2.5,0.7v5H-7.4z M-10.8,748.5h-0.4l-4.6,17.2h9.4L-10.8,748.5z"/>
				<path class="st1" d="M15.6,784.7v-5l5.5-0.4c0.8-0.1,0.9-0.3,0.9-1.3v-32.4h-4.8c-0.6,0-0.8,0.1-0.8,0.7l-0.9,5.5H8.8v-13.2
					h35.7v13.2h-6.6l-0.9-5.5c-0.1-0.6-0.3-0.7-0.9-0.7h-4.8V778c0,0.9,0.1,1.1,0.9,1.2l6,0.5v5H15.6z"/>
				<path class="st1" d="M47.1,761.9c0-13.7,5.7-24,19.6-24c13.8,0,18.6,10.4,18.6,23.1c0,14.9-5.5,24.5-19.4,24.5
					C51.9,785.5,47.1,775.6,47.1,761.9z M75.7,761.6c0-11-2.8-15.9-9-15.9c-6.4,0-9.8,5-9.8,16c0,11.4,3.1,16,9.5,16
					C72.5,777.6,75.7,773.3,75.7,761.6z"/>
				<path class="st1" d="M113.6,784.7l-5.1-16c-0.7-2.2-1.3-2.9-2.8-2.9h-2.5V778c0,1,0.1,1.1,0.9,1.3l2.9,0.5v5H89.5v-5l3.4-0.4
					c0.8-0.1,0.8-0.3,0.8-1.3v-32.6c0-1-0.1-1.1-0.8-1.3l-3.4-0.4v-5h19c9.8,0,12.9,6,12.9,12.4c0,6.9-3.1,10-7.2,12.1
					c2.1,0.9,3,2.5,3.9,5.5l3.1,9c0.3,0.9,0.7,1.3,1.7,1.5l3,0.6v5H113.6z M105.4,759.3c3.6,0,6.3-1.1,6.3-7.3c0-5-2-6.4-5.9-6.4
					h-2.7v13.7H105.4z"/>
			</g>
		</g>
		<g>
			<path class="st2" d="M-38.5,713.9c-1.4,2.1-3,4-4.7,5.7h159.8v-3L-38.5,713.9z"/>
		</g>
		<g>
			<path class="st2" d="M-100.1,713.9l-154.2,2.7v3h158.8C-97.2,717.9-98.7,716-100.1,713.9z"/>
		</g>
		<g>
			<g>
				<path class="st2" d="M-70.5,693.6"/>
			</g>
			<g id="_x32__4_">
				<g>
					<g>
						<path class="st2" d="M-68.5,681.6c-14.4,0-26,10.2-26,22.8c0,7.2,3.8,13.6,9.8,17.7v11.5l11.4-6.9c1.6,0.3,3.2,0.4,4.9,0.4
							c14.4,0,26-10.2,26-22.8C-42.5,691.8-54.2,681.6-68.5,681.6z M-68.5,723.9c-1.9,0-3.7-0.2-5.5-0.6l-7.7,4.6l0.1-7.5
							c-5.9-3.5-9.7-9.4-9.7-16c0-10.8,10.2-19.5,22.8-19.5s22.8,8.7,22.8,19.5C-45.8,715.2-56,723.9-68.5,723.9z"/>
					</g>
				</g>
			</g>
			<g>
				<g>
					<path class="st2" d="M-59.3,701h-3v-1.2c1.1-0.9,1.8-2.3,1.8-3.8c0-2.8-2.4-5-5.2-5c-0.5,0-1,0.1-1.5,0.2c-1-1-2.4-1.6-3.9-1.6
						c-1.9,0-3.6,1-4.6,2.4c-2.4,0.3-4.2,2.3-4.2,4.7c0,1.6,0.8,2.9,2,3.8v16.1c0,0.7,0.6,1.2,1.4,1.2h12.7c0.8,0,1.4-0.6,1.4-1.2
						v-3.1h3c1,0,1.8-0.8,1.8-1.8v-8.8C-57.4,701.8-58.3,701-59.3,701z M-74.9,693.9c0.2,0,0.3,0,0.5,0c0.4-1.4,1.8-2.4,3.4-2.4
						c1.5,0,2.7,0.8,3.3,2c0.6-0.4,1.3-0.7,2.1-0.7c1.9,0,3.4,1.4,3.4,3.2s-1.5,3.2-3.4,3.2c0,0,0,0-0.1,0c-0.3,0.8-1.1,1.4-2.1,1.4
						s-1.8-0.6-2.1-1.5c-0.4,0.3-0.9,0.5-1.5,0.5c-0.7,0-1.2-0.3-1.7-0.7c-0.5,0.4-1.2,0.6-1.9,0.6c-1.7,0-3-1.3-3-2.8
						C-77.9,695.2-76.6,693.9-74.9,693.9z M-74.5,715.7c-0.5,0-0.9-0.4-0.9-0.9v-13.3c0.2,0,0.4,0,0.6,0c0.4,0,0.9-0.1,1.3-0.2v13.4
						C-73.6,715.3-74,715.7-74.5,715.7z M-70.2,715.7c-0.5,0-0.9-0.4-0.9-0.9v-13.2c0.2,0,0.4,0,0.6-0.1c0.4,0.3,0.8,0.6,1.3,0.8
						v12.5C-69.2,715.3-69.6,715.7-70.2,715.7z M-65.8,715.7c-0.5,0-1-0.4-1-0.9v-12.4c0.7-0.2,1.4-0.6,1.9-1.1v13.4
						C-64.9,715.3-65.3,715.7-65.8,715.7z M-59.9,710.7c0,0.1-0.1,0.3-0.3,0.3h-2v-7.5h2c0.1,0,0.3,0.1,0.3,0.3V710.7z"/>
				</g>
			</g>
		</g>
		<g class="st0">
			<path class="st2" d="M-123.3,811.4l7.6-11.1c0.5-0.8,1-1.3,1-1.3v0c0,0-0.4,0-1.1,0h-7.2v-1.3h10.1v1l-7.6,11.1
				c-0.5,0.8-1,1.3-1,1.3v0c0,0,0.4,0,1.1,0h7.6v1.3h-10.5V811.4z"/>
			<path class="st2" d="M-107.6,797.6h1.4v14.8h-1.4V797.6z"/>
			<path class="st2" d="M-99.9,797.6h5.1c2.6,0,4.6,1.7,4.6,4.5c0,2.8-1.9,4.5-4.6,4.5h-3.7v5.8h-1.4V797.6z M-95,805.3
				c2,0,3.3-1.2,3.3-3.2c0-2-1.3-3.2-3.2-3.2h-3.5v6.4H-95z"/>
			<path class="st2" d="M-77.8,799.8c0,0-0.2,1.3-0.5,2.2l-2.8,10.4h-1.7l-3.8-14.8h1.5l2.9,11.5c0.2,0.8,0.3,1.6,0.3,1.6h0
				c0,0,0.1-0.8,0.3-1.6l3.1-11.5h1.4l3.1,11.5c0.2,0.8,0.3,1.6,0.3,1.6h0c0,0,0.1-0.8,0.3-1.6l3-11.5h1.5l-3.9,14.8h-1.7l-2.8-10.4
				C-77.5,801-77.7,799.8-77.8,799.8L-77.8,799.8z"/>
			<path class="st2" d="M-63.9,797.6h1.4v6.7h8.6v-6.7h1.4v14.8h-1.4v-6.7h-8.6v6.7h-1.4V797.6z"/>
			<path class="st2" d="M-46.1,797.6h1.4v14.8h-1.4V797.6z"/>
			<path class="st2" d="M-38.4,797.6h5.1c2.6,0,4.6,1.7,4.6,4.5c0,2.8-1.9,4.5-4.6,4.5h-3.7v5.8h-1.4V797.6z M-33.5,805.3
				c2,0,3.3-1.2,3.3-3.2c0-2-1.3-3.2-3.2-3.2h-3.5v6.4H-33.5z"/>
		</g>
		<g>
			<g>
				<polygon class="st2" points="-132.3,801.2 -241.3,801.2 -241.3,803.2 -131.3,806.2 				"/>
			</g>
			<g>
				<polygon class="st2" points="-4.3,801.2 103.7,801.2 103.7,803.2 -5.3,806.2 				"/>
			</g>
		</g>
	</g>
	<g class="st0">
		<path class="st1" d="M-364.5,883.5h-9.7v-3.4h23.3v3.4h-9.7v24.8h-4V883.5z"/>
		<path class="st1" d="M-339.4,887.6c5.7,0,8.8,4.2,8.8,9.5c0,0.5-0.1,1.7-0.1,1.7h-14.8c0.2,4.4,3.4,6.7,7,6.7c3.5,0,6-2.4,6-2.4
			l1.6,2.8c0,0-3,2.9-7.8,2.9c-6.4,0-10.7-4.6-10.7-10.6C-349.5,891.7-345.1,887.6-339.4,887.6z M-334.6,895.8
			c-0.1-3.5-2.3-5.2-4.9-5.2c-3,0-5.4,1.8-5.9,5.2H-334.6z"/>
		<path class="st1" d="M-315.8,900.4c0,0-0.3,0.6-0.6,1.1l-4.2,6.8h-4.4l6.9-10.4l-6.5-9.8h4.4l3.8,6.2c0.3,0.5,0.7,1.2,0.7,1.2h0.1
			c0,0,0.4-0.7,0.7-1.2l3.8-6.2h4.4l-6.5,9.8l6.9,10.4h-4.4l-4.2-6.8C-315.4,901.1-315.7,900.4-315.8,900.4L-315.8,900.4z"/>
		<path class="st1" d="M-298.7,891.5h-2.6v-3.1h2.8v-5.8h3.8v5.8h4.9v3.1h-4.9v9c0,4,2.8,4.6,4.3,4.6c0.6,0,0.9-0.1,0.9-0.1v3.4
			c0,0-0.6,0.1-1.4,0.1c-2.6,0-7.8-0.8-7.8-7.6V891.5z"/>
	</g>
	<g class="st0">
		<path class="st1" d="M-265.2,879.7h10.5c5.7,0,9.7,2.6,9.7,7.5c0,2.4-1.2,4.8-3.3,6.1v0.1c3.3,1,4.5,3.9,4.5,6.4
			c0,6.2-5.2,8.5-10.9,8.5h-10.5V879.7z M-254.6,890.8c1.8,0,2.5-1.3,2.5-2.6c0-1.3-0.8-2.4-2.6-2.4h-3.5v5.1H-254.6z M-254,902.3
			c2,0,3-1.4,3-3c0-1.6-1-2.9-3-2.9h-4.2v5.9H-254z"/>
		<path class="st1" d="M-235.8,879.7h17.9v6h-10.9v5.2h8.7v6h-8.7v5.4h11.5v6h-18.5V879.7z"/>
		<path class="st1" d="M-209.3,879.7h17.9v6h-10.9v5.2h8.7v6h-8.7v5.4h11.5v6h-18.5V879.7z"/>
		<path class="st1" d="M-182.8,879.7h10c2.9,0,4.3,0.2,5.6,0.7c3.2,1.2,5.3,4.2,5.3,8.3c0,3-1.4,6.4-4.3,7.8v0.1
			c0,0,0.4,0.5,1.1,1.7l5.6,10h-7.8l-5.1-9.6h-3.3v9.6h-7V879.7z M-172.8,892.7c2.2,0,3.6-1.2,3.6-3.5c0-2.2-0.8-3.4-4.3-3.4h-2.4v7
			H-172.8z"/>
	</g>
	<g class="st0">
		<path class="st1" d="M-139.7,891.5h-2.6v-3.1h2.8v-5.8h3.8v5.8h4.9v3.1h-4.9v9c0,4,2.8,4.6,4.3,4.6c0.6,0,0.9-0.1,0.9-0.1v3.4
			c0,0-0.6,0.1-1.4,0.1c-2.6,0-7.8-0.8-7.8-7.6V891.5z"/>
		<path class="st1" d="M-113.8,887.6c6,0,10.9,4.4,10.9,10.6c0,6.2-4.9,10.6-10.9,10.6s-10.9-4.5-10.9-10.6
			C-124.7,892-119.8,887.6-113.8,887.6z M-113.8,905.4c3.8,0,7-3,7-7.3c0-4.2-3.1-7.2-7-7.2c-3.8,0-7,3-7,7.2
			C-120.7,902.4-117.6,905.4-113.8,905.4z"/>
		<path class="st1" d="M-82.1,894.7c0-5.8,1.7-11.1,4.6-15.8h3.4c-2.9,4.9-4.5,10.2-4.5,15.8c0,6,1.5,11.9,4.5,17.4h-3.4
			C-80.3,907.3-82.1,901.1-82.1,894.7z"/>
		<path class="st1" d="M-63.1,892.6c-1.8-1.3-3.2-3-3.2-5.6c0-3.8,2.8-7.4,8.8-7.4c5.2,0,8.9,2.9,8.9,7.6c0,3.8-3,7-3.4,7.4
			c2.2,1.3,3.8,3.1,3.8,6c0,4.4-3.8,8.3-9.7,8.3c-5.6,0-9.8-3.5-9.8-8.6C-67.6,895.8-63.9,893.1-63.1,892.6z M-60.2,894.3
			c-0.9,0.6-3.4,2.6-3.4,5.6c0,3.2,2.8,5.3,5.8,5.3c3,0,5.6-1.9,5.6-4.8C-52.2,897.3-56.4,896.1-60.2,894.3z M-55,892.9
			c0.4-0.4,2.5-2.6,2.5-5.6c0-2.6-2.1-4.2-5-4.2c-3.1,0-4.8,1.8-4.8,3.9C-62.4,890.2-58.6,891.4-55,892.9z"/>
		<path class="st1" d="M-41.4,898.3l13-18.2h4.5v17.3h3.8v3.4h-3.8v7.6h-3.9v-7.6h-13.7V898.3z M-27.7,897.4v-10.3
			c0-1.3,0.2-2.8,0.2-2.8h-0.1c0,0-0.6,1.3-1.4,2.3l-8,10.7v0.1H-27.7z"/>
		<path class="st1" d="M-14.2,898.3l13-18.2h4.5v17.3h3.8v3.4H3.4v7.6h-3.9v-7.6h-13.7V898.3z M-0.5,897.4v-10.3
			c0-1.3,0.2-2.8,0.2-2.8h-0.1c0,0-0.6,1.3-1.4,2.3l-8,10.7v0.1H-0.5z"/>
		<path class="st1" d="M12.9,912.1c3-5.4,4.5-11.4,4.5-17.4c0-5.6-1.6-11-4.5-15.8h3.4c3,4.7,4.6,10,4.6,15.8
			c0,6.4-1.8,12.6-4.6,17.4H12.9z"/>
		<path class="st1" d="M30.3,907.6l1.3-3.4c0,0,1.8,1,4,1c5.2,0,7.9-4.8,8.5-9.5H44c-1.2,1.6-3.8,2.6-6.2,2.6c-5.4,0-8.9-4-8.9-9.3
			c0-5.6,3.8-9.4,9.1-9.4c6,0,10.6,5.2,10.6,13.3c0,7.2-4,15.9-12.7,15.9C32.4,908.8,30.3,907.6,30.3,907.6z M44.3,891
			c0-3.7-2.8-7.8-6.4-7.8c-3.3,0-5.2,2.5-5.2,5.8c0,3.4,2.2,6,5.8,6C41.8,895,44.3,893,44.3,891z"/>
		<path class="st1" d="M55.1,898.3l13-18.2h4.5v17.3h3.8v3.4h-3.8v7.6h-3.9v-7.6H55.1V898.3z M68.8,897.4v-10.3
			c0-1.3,0.2-2.8,0.2-2.8h-0.1c0,0-0.6,1.3-1.4,2.3l-8,10.7v0.1H68.8z"/>
		<path class="st1" d="M95.5,886.1c0.8-1.6,1.6-2.6,1.6-2.6v-0.1c0,0-0.6,0.1-2.1,0.1H82.5v-3.4h18.9v2.7l-12.8,25.5h-4.1
			L95.5,886.1z"/>
		<path class="st1" d="M108.9,895.2h11.7v3.4h-11.7V895.2z"/>
		<path class="st1" d="M131.3,902c0,0,2.2,3,6.2,3c3.3,0,6.2-2.3,6.2-5.7c0-3.4-2.8-5.8-6.4-5.8c-2.8,0-4.8,1.4-4.8,1.4l-2.3-0.8
			l1.4-14h14.2v3.4H135l-0.7,6c0,0.8-0.2,1.5-0.2,1.5h0.1c0,0,1.6-0.9,3.6-0.9c6,0,9.8,4.1,9.8,9.2c0,5.4-4.3,9.5-10,9.5
			c-5.8,0-8.6-3.9-8.6-3.9L131.3,902z"/>
		<path class="st1" d="M155.2,894.1c0-8.1,2.4-14.6,10-14.6c7.6,0,10,6.4,10,14.6c0,8.2-2.4,14.6-10,14.6
			C157.6,908.8,155.2,902.3,155.2,894.1z M171.1,894.1c0-6.1-1.3-10.9-6-10.9c-4.6,0-5.9,4.8-5.9,10.9c0,6.2,1.3,11,5.9,11
			C169.8,905.1,171.1,900.3,171.1,894.1z"/>
		<path class="st1" d="M183.2,894.1c0-8.1,2.4-14.6,10-14.6c7.6,0,10,6.4,10,14.6c0,8.2-2.4,14.6-10,14.6
			C185.6,908.8,183.2,902.3,183.2,894.1z M199.1,894.1c0-6.1-1.3-10.9-6-10.9c-4.6,0-5.9,4.8-5.9,10.9c0,6.2,1.3,11,5.9,11
			C197.8,905.1,199.1,900.3,199.1,894.1z"/>
		<path class="st1" d="M211.2,894.1c0-8.1,2.4-14.6,10-14.6c7.6,0,10,6.4,10,14.6c0,8.2-2.4,14.6-10,14.6
			C213.6,908.8,211.2,902.3,211.2,894.1z M227.1,894.1c0-6.1-1.3-10.9-6-10.9c-4.6,0-5.9,4.8-5.9,10.9c0,6.2,1.3,11,5.9,11
			C225.8,905.1,227.1,900.3,227.1,894.1z"/>
	</g>
</g>
</svg>
