<?xml version="1.0" encoding="utf-8"?>
<!-- Generator: Adobe Illustrator 19.1.0, SVG Export Plug-In . SVG Version: 6.00 Build 0)  -->
<svg version="1.1" id="Layer_1" xmlns="http://www.w3.org/2000/svg" xmlns:xlink="http://www.w3.org/1999/xlink" x="0px" y="0px"
	 viewBox="-595.5 536.3 1600 900" style="enable-background:new -595.5 536.3 1600 900;" xml:space="preserve">
<style type="text/css">
	.st0{fill:#FFE2BB;}
	.st1{clip-path:url(#SVGID_2_);}
	.st2{opacity:0.25;}
	.st3{fill:#FFFFFF;}
</style>
<rect x="-595.5" y="536.3" class="st0" width="1600" height="900"/>
<g>
	<defs>
		<rect id="SVGID_1_" x="-595.5" y="536.3" width="1600" height="900"/>
	</defs>
	<clipPath id="SVGID_2_">
		<use xlink:href="#SVGID_1_"  style="overflow:visible;"/>
	</clipPath>
	<g class="st1">
		<g class="st2">
			<path class="st3" d="M-123.3,1095.1"/>
			<g id="_x32__4_">
				<g>
					<path class="st3" d="M-77.9,1017.3c-99.7-37.9-206.8,2.1-240,89.3c-19,49.8-9.5,104.1,21.2,148.3l-30.3,79.6l97.1-17.7
						c10.3,6.3,21.1,11.2,32.9,15.7c99.7,37.9,206.8-2.1,240-89.3C75.2,1156.4,21.1,1055-77.9,1017.3z M-189.3,1310
						c-13.1-5-25.1-11.1-36.5-18.6l-65.4,11.5l20.5-51.6c-31.6-39.8-42.4-90.6-25-136.3c28.5-74.7,122-108.1,209.2-74.9
						c87.2,33.2,134.9,120.3,106.4,195C-9.3,1309.6-102.8,1343-189.3,1310z"/>
				</g>
			</g>
			<g>
				<path class="st3" d="M-65.3,1175.8l-20.8-7.9l3.2-8.3c10-3.3,18.5-11.2,22.5-21.6c7.4-19.4-3.4-40.9-22.8-48.3
					c-3.5-1.3-7.2-1.9-10.9-2.6c-4.3-9.6-12.4-17.4-22.8-21.3c-13.1-5-27.5-2.6-38.2,4.5c-17.4-4.2-35.1,4.9-41.5,21.5
					c-4.2,11.1-2.1,22.2,3.8,31.6l-42.4,111.4c-1.8,4.8,1,9.9,6.5,12l87.9,33.5c5.5,2.1,11.3-0.5,12.9-4.6l8.2-21.5l20.8,7.9
					c6.9,2.6,14.6-0.8,17.2-7.7l23.2-60.9C-54.3,1186.3-58.4,1178.4-65.3,1175.8z M-154.6,1085.5c1.4,0.5,2.1,0.8,3.5,1.3
					c6.5-8.6,18.8-11.9,29.9-7.7c10.4,4,16.6,12.7,17.6,22.5c5.2-1.2,10.8-1.4,16.4,0.7c13.1,5,19.8,18.6,15.1,31.1
					c-4.7,12.5-18.8,18.2-32,13.2c0,0,0,0-0.7-0.3c-4.2,4.7-11.3,6.8-18.2,4.2s-10.9-8.9-10.6-15.9c-3.6,1-7.5,1.1-11.7-0.5
					c-4.8-1.8-7.5-5.2-9.9-9.3c-4.5,1.5-9.9,1-14.7-0.9c-11.8-4.5-17.3-16.9-13.4-27.3C-178.8,1086.6-166.3,1081.1-154.6,1085.5z
					 M-209.2,1237.5c-3.5-1.3-5.2-5.1-3.9-8.6l35-92c1.4,0.5,2.8,1.1,4.2,1.6c2.8,1.1,6.5,1.7,9.5,2l-35.3,92.7
					C-202,1237.1-205.8,1238.8-209.2,1237.5z M-179.5,1248.8c-3.5-1.3-5.2-5.1-3.9-8.6l34.8-91.4c1.4,0.5,2.8,1.1,4.4,0.9
					c2,3.1,4,6.3,6.9,9l-32.9,86.5C-171.5,1248.7-175.3,1250.4-179.5,1248.8z M-149,1260.4c-3.5-1.3-5.9-5.4-4.5-8.9l32.7-85.8
					c5.4,0.5,11.3-0.5,16-2.6l-35.3,92.7C-141.7,1260-145.6,1261.7-149,1260.4z M-95,1241.3c-0.3,0.7-1.5,1.8-2.9,1.3l-13.8-5.3
					l19.8-51.9l13.8,5.3c0.7,0.3,1.8,1.5,1.3,2.9L-95,1241.3z"/>
			</g>
		</g>
		<g class="st2">
			<path class="st3" d="M857.6,867.4"/>
			<g id="_x32__1_">
				<g>
					<path class="st3" d="M879.3,799.8c-82.5-12.2-157.8,36.9-168.6,109.7c-6.2,41.6,10.1,81.8,41,110.6l-9.8,66.5l71.3-30.2
						c8.9,3.1,18,5,27.7,6.5c82.5,12.2,157.8-36.9,168.6-109.7C1019.6,880.8,961.3,811.9,879.3,799.8z M843.1,1044.2
						c-10.9-1.6-21-4.3-31-8.1l-48.1,20l7-43.3c-30.8-25.2-47.6-62.6-41.9-100.7c9.2-62.4,75.2-104,147.4-93.3
						c72.2,10.7,123.2,69.6,114,132.1C980.7,1013.2,914.7,1054.8,843.1,1044.2z"/>
				</g>
			</g>
			<g>
				<path class="st3" d="M915.4,919.7l-17.2-2.5l1-6.9c7.1-4.3,12.3-11.8,13.6-20.4c2.4-16.2-9.5-30.9-25.5-33.3
					c-2.9-0.4-5.8-0.3-8.8-0.1c-4.9-6.6-12.4-11.3-21-12.6c-10.9-1.6-21.5,2.7-28.4,10c-14-0.3-26,9.7-28.1,23.6
					c-1.4,9.2,2.1,17.4,8.2,23.7l-13.8,93c-0.6,4,2.4,7.4,7,8.1l72.8,10.8c4.6,0.7,8.5-2.3,9.1-5.7l2.7-17.9l17.2,2.5
					c5.7,0.8,11-3.1,11.9-8.9l7.5-50.9C925.6,925.9,921.2,920.5,915.4,919.7z M832.1,865.4c1.1,0.2,1.7,0.3,2.9,0.4
					c3.5-7.8,12.4-12.3,21.5-11c8.6,1.3,14.8,6.9,17.2,14.4c3.8-1.8,8.1-2.9,12.6-2.3c10.9,1.6,18.3,11,16.7,21.4
					c-1.5,10.4-11.3,17.2-22.2,15.6c0,0,0,0-0.6-0.1c-2.4,4.4-7.5,7.2-13.2,6.3c-5.7-0.8-9.8-5-10.8-10.5c-2.5,1.4-5.6,2.1-9,1.6
					c-4-0.6-6.6-2.8-9.1-5.5c-3.2,1.9-7.4,2.4-11.4,1.9c-9.7-1.4-16.1-10.1-14.8-18.7C813.8,870.4,822.4,864,832.1,865.4z
					 M815.7,991.7c-2.9-0.4-4.8-3.1-4.4-6l11.4-76.9c1.1,0.2,2.3,0.3,3.4,0.5c2.3,0.3,5.2,0.2,7.6-0.1l-11.5,77.4
					C821.2,990.2,818.6,992.2,815.7,991.7z M840.4,995.4c-2.9-0.4-4.8-3.1-4.4-6l11.3-76.3c1.1,0.2,2.3,0.3,3.5-0.1
					c2,2.1,4.1,4.1,6.8,5.7L846.9,991C846.4,993.9,843.8,995.9,840.4,995.4z M865.6,999.1c-2.9-0.4-5.4-3.2-5-6.1l10.6-71.7
					c4.2-0.6,8.5-2.3,11.8-4.7l-11.5,77.4C871.1,997.6,868.5,999.6,865.6,999.1z M903.7,975.2c-0.1,0.6-0.8,1.6-2,1.5l-11.5-1.7
					l6.4-43.3l11.5,1.7c0.6,0.1,1.6,0.8,1.5,2L903.7,975.2z"/>
			</g>
		</g>
		<g class="st2">
			<path class="st3" d="M614.2,451.2"/>
			<g id="_x32__2_">
				<g>
					<path class="st3" d="M680.8,339.9c-142.9-56-297.6,0.1-346.6,125.1c-28,71.4-15.2,149.7,28.4,213.7l-44.7,114.1l139.9-24.1
						c14.7,9.2,30.2,16.4,47.1,23c142.9,56,297.6-0.1,346.6-125.1C899,542.2,822.6,395.5,680.8,339.9z M516.2,759.6
						c-18.9-7.4-35.9-16.4-52.2-27.3l-94.3,15.7l30.2-74c-44.9-57.7-59.7-131-34-196.5c42-107.1,177-153.8,302-104.8
						s192.4,175,150.4,282.1C775.3,761.5,640.2,808.2,516.2,759.6z"/>
				</g>
			</g>
			<g>
				<path class="st3" d="M696.6,568.1l-29.8-11.7l4.7-11.9c14.4-4.7,26.8-15.8,32.6-30.7c10.9-27.8-4.4-58.9-32.1-69.8
					c-5-1.9-10.3-2.9-15.7-3.9c-6-13.8-17.6-25.2-32.5-31c-18.8-7.4-39.6-4.1-55,5.9c-25-6.4-50.6,6.5-59.9,30.3
					c-6.2,15.9-3.3,31.9,5.1,45.5l-62.6,159.7c-2.7,6.9,1.3,14.2,9.2,17.4l126,49.4c7.9,3.1,16.2-0.5,18.6-6.5l12.1-30.8l29.8,11.7
					c9.9,3.9,21-0.9,24.9-10.9l34.2-87.3C712.3,583.5,706.5,572,696.6,568.1z M569.4,437c2,0.8,3,1.2,5,1.9
					c9.4-12.3,27.2-16.8,43.1-10.6c14.9,5.8,23.7,18.4,25,32.7c7.5-1.6,15.6-1.9,23.6,1.2c18.8,7.4,28.3,27.1,21.3,45
					c-7,17.9-27.3,25.9-46.2,18.5c0,0,0,0-1-0.4c-6.1,6.8-16.4,9.6-26.3,5.7c-9.9-3.9-15.5-13-15-23c-5.1,1.4-10.9,1.5-16.8-0.9
					c-6.9-2.7-10.7-7.6-14.1-13.6c-6.5,2-14.2,1.3-21.2-1.4c-16.9-6.6-24.7-24.6-18.9-39.4C534.6,438.3,552.6,430.4,569.4,437z
					 M488.6,654.9c-5-1.9-7.4-7.5-5.4-12.4l51.7-131.9c2,0.8,4,1.6,6,2.3c4,1.6,9.3,2.5,13.7,3.1l-52.1,132.9
					C499.1,654.4,493.6,656.8,488.6,654.9z M531.3,671.6c-5-1.9-7.4-7.5-5.4-12.4l51.3-131c2,0.8,4,1.6,6.3,1.3
					c2.8,4.5,5.6,9.1,9.8,13l-48.6,124C542.7,671.5,537.2,673.9,531.3,671.6z M574.9,688.7c-5-1.9-8.4-7.9-6.4-12.8l48.2-123
					c7.7,0.7,16.2-0.5,23.1-3.5l-52.1,132.9C585.4,688.2,579.9,690.6,574.9,688.7z M652.9,662c-0.4,1-2.2,2.6-4.1,1.8l-19.8-7.8
					l29.2-74.4l19.8,7.8c1,0.4,2.6,2.2,1.8,4.1L652.9,662z"/>
			</g>
		</g>
		<g class="st2">
			<path class="st3" d="M-415.4,622.7"/>
			<g id="_x32__3_">
				<g>
					<path class="st3" d="M-386.6,492.8c-157.2-8.4-289.8,96.2-297.2,233.8c-4.2,78.6,33.6,150.7,96.7,199l-6.7,125.6l128.5-68.7
						c17.3,4.2,34.7,6.2,53.3,7.2c157.2,8.4,289.8-96.2,297.2-233.8C-108.7,619.4-230.4,501.2-386.6,492.8z M-411.2,954.7
						c-20.7-1.1-40.3-4.3-59.7-9.8l-86.7,45.7l5.5-81.8c-62.4-41.7-100.4-108.3-96.6-180.3c6.3-117.9,122.7-206.9,260.3-199.6
						s243.8,108.3,237.5,226.2C-158.3,872.9-274.8,961.9-411.2,954.7z"/>
				</g>
			</g>
			<g>
				<path class="st3" d="M-297.4,710l-32.8-1.7l0.7-13.1c12.5-9.2,21-24.1,21.9-40.4c1.6-30.6-23.3-56-53.9-57.6
					c-5.5-0.3-11,0.5-16.5,1.3c-10.3-11.5-25.3-18.9-41.6-19.7c-20.7-1.1-39.9,8.8-51.6,23.5c-26.4,1.9-47.2,22.7-48.6,48.9
					c-0.9,17.5,7,32.1,19.6,42.7l-9.4,175.8c-0.4,7.6,5.9,13.5,14.6,13.9l138.7,7.4c8.7,0.5,15.6-5.7,16-12.3l1.8-33.8l32.8,1.7
					c10.9,0.6,20.1-7.7,20.7-18.6l5.1-96.1C-277.2,719.9-286.5,710.6-297.4,710z M-463.6,623.4c2.2,0.1,3.3,0.2,5.5,0.3
					c5.2-15.1,21.1-25.2,38.5-24.2c16.4,0.9,29,10.3,34.9,23.8c6.8-4,14.6-6.9,23.3-6.4c20.7,1.1,36.3,17.3,35.3,36.9
					c-1,19.7-18.2,34.1-39,33c0,0,0,0-1.1-0.1c-3.7,8.6-12.8,14.6-23.7,14.1s-19.3-7.6-22.1-17.6c-4.5,3-10.1,4.9-16.7,4.6
					c-7.6-0.4-12.9-4-18.2-8.6c-5.7,4.1-13.5,5.9-21.1,5.4c-18.6-1-32-15.9-31.1-32.3C-497.1,635.8-482.2,622.4-463.6,623.4z
					 M-472,861.6c-5.5-0.3-9.6-4.9-9.3-10.4l7.8-145.2c2.2,0.1,4.4,0.2,6.6,0.3c4.4,0.2,9.9-0.6,14.3-1.4l-7.8,146.3
					C-461.9,857.8-466.5,861.9-472,861.6z M-425,864.1c-5.5-0.3-9.6-4.9-9.3-10.4l7.7-144.1c2.2,0.1,4.4,0.2,6.6-0.7
					c4.2,3.5,8.4,7,13.7,9.5l-7.3,136.5C-413.9,860.4-418.5,864.5-425,864.1z M-377,866.7c-5.5-0.3-10.7-5-10.4-10.4l7.2-135.4
					c7.8-1.8,15.6-5.7,21.4-10.9l-7.8,146.3C-366.9,862.9-371.5,867-377,866.7z M-309.6,815.6c-0.1,1.1-1.3,3.2-3.5,3.1l-21.8-1.2
					l4.4-81.9l21.8,1.2c1.1,0.1,3.2,1.3,3.1,3.5L-309.6,815.6z"/>
			</g>
		</g>
		<g class="st2">
			<path class="st3" d="M190.7,915.3"/>
			<g id="_x32__5_">
				<g>
					<path class="st3" d="M175.5,833.9C83.4,867.5,33,959.7,62.3,1040.3c16.8,46,56,78.1,103.9,90.4l26.8,73.5l56.8-70.7
						c10.9-1.8,21.4-4.9,32.3-8.9c92.1-33.5,142.5-125.8,113.2-206.4C365.5,838.6,266.9,800.6,175.5,833.9z M274,1104.5
						c-12.2,4.4-24.1,7.3-36.6,9l-38.5,47.4l-16.8-48.2c-45.9-8.6-83.9-37.5-99.3-79.7C57.6,963.8,102.6,884.4,183.2,855
						s166.1,2.5,191.2,71.6C398.9,995.9,354,1075.3,274,1104.5z"/>
				</g>
			</g>
			<g>
				<path class="st3" d="M279.5,936.6l-19.2,7l-2.8-7.7c4.9-8.3,6.2-18.9,2.7-28.5c-6.5-17.9-27-26.4-44.9-19.9
					c-3.2,1.2-6.2,3-9.1,4.8c-8.7-4.1-19.1-4.6-28.7-1.1c-12.2,4.4-20.7,14.8-23.8,26.1c-14.6,7.5-21.5,24.5-15.9,39.8
					c3.7,10.2,11.9,16.7,21.6,19.6l37.5,103c1.6,4.5,6.6,6.3,11.7,4.4l81.2-29.6c5.1-1.9,7.6-7.1,6.2-10.9l-7.2-19.8l19.2-7
					c6.4-2.3,9.6-9.3,7.3-15.7l-20.5-56.3C293.5,937.3,285.9,934.2,279.5,936.6z M163.2,927.5c1.3-0.5,1.9-0.7,3.2-1.2
					c-0.7-9.9,5.9-19.5,16.2-23.3c9.6-3.5,19.1-1.2,25.8,5.1c2.9-4,6.7-7.5,11.8-9.4c12.2-4.4,25,1,29.2,12.5
					c4.2,11.5-2.1,24-14.3,28.4c0,0,0,0-0.6,0.2c-0.1,5.8-3.8,11.5-10.2,13.8c-6.4,2.3-12.9,0.4-16.9-4.7c-1.9,2.9-4.6,5.3-8.4,6.7
					c-4.5,1.6-8.4,0.9-12.5-0.5c-2.3,3.7-6.3,6.6-10.8,8.3c-10.9,4-22.2-1.3-25.7-10.9C147.1,942.8,152.3,931.5,163.2,927.5z
					 M216.6,1066c-3.2,1.2-6.7-0.5-7.9-3.7l-31-85.1c1.3-0.5,2.6-0.9,3.8-1.4c2.6-0.9,5.5-2.7,7.8-4.3l31.2,85.7
					C221.4,1061.3,219.8,1064.8,216.6,1066z M244.1,1056c-3.2,1.2-6.7-0.5-7.9-3.7l-30.8-84.4c1.3-0.5,2.6-0.9,3.6-2
					c3.3,1,6.5,2,10.2,2.1l29.1,79.9C249.5,1051.1,247.9,1054.6,244.1,1056z M272.2,1045.7c-3.2,1.2-7.3-0.2-8.5-3.4L234.8,963
					c4-2.9,7.6-7.1,9.6-11.5l31.2,85.7C277,1041.1,275.4,1044.6,272.2,1045.7z M298.3,1000c0.2,0.6,0.1,2.2-1.2,2.6l-12.8,4.7
					l-17.5-48l12.8-4.7c0.6-0.2,2.2-0.1,2.6,1.2L298.3,1000z"/>
			</g>
		</g>
		<g class="st2">
			<path class="st3" d="M50.8,640"/>
			<g id="_x32__6_">
				<g>
					<path class="st3" d="M57.8,584C-9,586.7-60.9,636.3-58.5,694.7c1.4,33.4,20.2,62.4,48.8,80.3l2.2,53.4l51.6-34.2
						c7.5,1.1,14.9,1.2,22.8,0.9c66.8-2.7,118.7-52.3,116.3-110.8C180.4,626.3,124.2,581.3,57.8,584z M65.9,780.3
						c-8.8,0.4-17.2-0.2-25.6-1.7L5.4,801.3l-1-34.8c-28-15.1-46.8-41.8-48.1-72.4C-45.7,644,0,601.7,58.4,599.3
						s107.5,36,109.5,86.1C169.5,735.6,123.9,777.9,65.9,780.3z"/>
				</g>
			</g>
			<g>
				<path class="st3" d="M104.2,672.2l-13.9,0.6l-0.2-5.6c4.9-4.4,7.9-11,7.6-18c-0.5-13-12.1-22.7-25.1-22.2
					c-2.3,0.1-4.6,0.7-6.9,1.2c-4.8-4.4-11.4-7-18.4-6.7c-8.8,0.4-16.5,5.3-20.9,12c-11.1,1.8-19,11.5-18.6,22.6
					c0.3,7.4,4.3,13.3,10,17.3l3.1,74.7c0.1,3.2,3,5.5,6.7,5.3l58.9-2.4c3.7-0.2,6.4-3.1,6.3-5.8l-0.6-14.4l13.9-0.6
					c4.6-0.2,8.2-4.1,8-8.7l-1.7-40.8C113.2,675.6,108.8,672,104.2,672.2z M30.5,642.3c0.9,0,1.4-0.1,2.3-0.1
					c1.6-6.6,7.9-11.5,15.3-11.8c7-0.3,12.7,3.2,15.7,8.7c2.7-2,5.9-3.5,9.6-3.6c8.8-0.4,16,5.8,16.4,14.2
					c0.3,8.4-6.3,15.1-15.2,15.5c0,0,0,0-0.5,0c-1.2,3.8-4.8,6.7-9.5,6.9c-4.6,0.2-8.5-2.4-10-6.6c-1.8,1.5-4.1,2.5-6.9,2.6
					c-3.2,0.1-5.6-1.2-8-2.9c-2.2,2-5.5,3-8.7,3.1c-7.9,0.3-14.2-5.5-14.5-12.4C16.8,648.9,22.6,642.6,30.5,642.3z M36.5,743.3
					c-2.3,0.1-4.3-1.7-4.3-4l-2.5-61.7c0.9,0,1.9-0.1,2.8-0.1c1.9-0.1,4.2-0.6,6-1.2l2.6,62.2C40.6,741.3,38.8,743.3,36.5,743.3z
					 M56.4,742.5c-2.3,0.1-4.3-1.7-4.3-4l-2.5-61.2c0.9,0,1.9-0.1,2.8-0.6c1.9,1.3,3.8,2.6,6.2,3.5l2.4,58
					C61,740.5,59.2,742.4,56.4,742.5z M76.8,741.7c-2.3,0.1-4.7-1.7-4.8-4l-2.4-57.5c3.2-1.1,6.4-3.1,8.6-5.5l2.6,62.2
					C80.9,739.7,79.2,741.6,76.8,741.7z M103.3,717.4c0,0.5-0.4,1.4-1.3,1.4l-9.3,0.4l-1.4-34.8l9.3-0.4c0.5,0,1.4,0.4,1.4,1.3
					L103.3,717.4z"/>
			</g>
		</g>
		<g class="st2">
			<path class="st3" d="M-534.4,1199.5"/>
			<g id="_x32__7_">
				<g>
					<path class="st3" d="M-535.6,1143c-65.7,12.4-109.9,68.9-99,126.4c6.2,32.9,29,58.8,60,72.3l9.9,52.5l46.1-41.3
						c7.6,0,14.9-0.9,22.7-2.4c65.7-12.4,109.9-68.9,99-126.4C-408.2,1167.2-470.3,1130.7-535.6,1143z M-499.2,1336
						c-8.7,1.6-17.1,2.3-25.6,2l-31.2,27.6l-6-34.3c-29.9-10.9-52.4-34.5-58-64.7c-9.3-49.3,29.8-97.8,87.3-108.6
						c57.5-10.8,111.5,20.1,120.8,69.4C-403.1,1276.8-442.2,1325.3-499.2,1336z"/>
				</g>
			</g>
			<g>
				<path class="st3" d="M-476.9,1223.6l-13.7,2.6l-1-5.5c4.2-5.1,6.2-12,4.9-18.9c-2.4-12.8-15.3-20.8-28-18.3
					c-2.3,0.4-4.5,1.3-6.7,2.2c-5.4-3.7-12.3-5.2-19.2-3.9c-8.7,1.6-15.6,7.7-18.9,14.9c-10.7,3.4-17.2,14.1-15.1,25.1
					c1.4,7.3,6.1,12.5,12.4,15.6l13.9,73.5c0.6,3.2,3.8,5,7.4,4.3l58-10.9c3.7-0.7,5.9-3.9,5.4-6.7l-2.7-14.1l13.7-2.6
					c4.6-0.9,7.5-5.2,6.7-9.8l-7.6-40.2C-467.6,1225.6-472.4,1222.8-476.9,1223.6z M-554.2,1204.6c0.9-0.2,1.4-0.3,2.3-0.4
					c0.6-6.7,6.1-12.5,13.5-13.9c6.8-1.3,13,1.3,16.8,6.3c2.4-2.3,5.3-4.3,9-5c8.7-1.6,16.7,3.5,18.3,11.7
					c1.5,8.2-4.1,15.9-12.8,17.5c0,0,0,0-0.5,0.1c-0.7,3.9-3.8,7.3-8.4,8.2c-4.6,0.9-8.7-1.2-10.9-5c-1.6,1.7-3.7,3.1-6.4,3.6
					c-3.2,0.6-5.7-0.3-8.4-1.7c-1.9,2.3-5,3.8-8.2,4.4c-7.8,1.5-14.8-3.4-16.1-10.2C-566.8,1213.2-562,1206.1-554.2,1204.6z
					 M-533.6,1303.8c-2.3,0.4-4.5-1.1-4.9-3.3l-11.4-60.7c0.9-0.2,1.8-0.3,2.7-0.5c1.8-0.3,4-1.2,5.8-2l11.5,61.2
					C-529.9,1301.2-531.4,1303.3-533.6,1303.8z M-514,1300.1c-2.3,0.4-4.5-1.1-4.9-3.3l-11.4-60.2c0.9-0.2,1.8-0.3,2.7-1
					c2.1,1,4.2,2,6.6,2.5l10.8,57C-509.8,1297.4-511.3,1299.6-514,1300.1z M-493.9,1296.3c-2.3,0.4-4.9-1-5.3-3.2l-10.7-56.6
					c3-1.5,5.9-3.9,7.7-6.7l11.5,61.2C-490.2,1293.7-491.7,1295.9-493.9,1296.3z M-471.3,1268.4c0.1,0.5-0.2,1.5-1.1,1.6l-9.1,1.7
					l-6.5-34.2l9.1-1.7c0.5-0.1,1.5,0.2,1.6,1.1L-471.3,1268.4z"/>
			</g>
		</g>
		<g class="st2">
			<path class="st3" d="M509.3,1212.7"/>
			<g id="_x32__8_">
				<g>
					<path class="st3" d="M532.6,1084.6c-154.1-2.3-279.9,105.1-281.8,239.9c-1.1,77.1,38.5,146.2,102.1,191l-1.8,123.1l123.1-72.1
						c17.1,3.5,34.2,4.8,52.4,5c154.1,2.3,279.9-105.1,281.8-239.9C809.3,1197.9,685.6,1086.9,532.6,1084.6z M526,1537.3
						c-20.3-0.3-39.6-2.7-58.8-7.3l-83.1,48l2.2-80.3C323.7,1459.4,284,1395.7,285,1325c1.7-115.6,112.2-207.1,247.1-205.1
						c134.9,2,242.7,96.7,241,212.3C770.3,1447.8,659.7,1539.3,526,1537.3z"/>
				</g>
			</g>
			<g>
				<path class="st3" d="M628,1293.7l-32.1-0.5l0.2-12.8c11.9-9.5,19.6-24.3,19.9-40.4c0.4-30-24.9-53.9-54.9-54.3
					c-5.4-0.1-10.7,0.9-16.1,1.9c-10.5-10.9-25.4-17.5-41.5-17.7c-20.3-0.3-38.7,10.1-49.6,25c-25.7,2.8-45.3,24-45.7,49.6
					c-0.3,17.1,8.1,31.2,20.8,41l-2.5,172.3c-0.1,7.5,6.2,12.9,14.8,13.1l135.9,2c8.6,0.1,15.1-6.2,15.2-12.6l0.5-33.2l32.1,0.5
					c10.7,0.2,19.4-8.3,19.5-19l1.4-94.2C648.2,1302.5,638.7,1293.8,628,1293.7z M462.2,1215.2c2.1,0,3.2,0,5.4,0.1
					c4.5-14.9,19.6-25.4,36.8-25.2c16.1,0.2,28.8,9,35,21.9c6.5-4.2,14-7.3,22.6-7.2c20.3,0.3,36.2,15.5,35.9,34.8
					c-0.3,19.3-16.6,34-36.9,33.7c0,0,0,0-1.1,0c-3.3,8.5-12,14.8-22.7,14.7c-10.7-0.2-19.2-6.7-22.2-16.4
					c-4.3,3.1-9.7,5.2-16.1,5.1c-7.5-0.1-12.8-3.4-18.1-7.8c-5.4,4.2-12.9,6.2-20.4,6.1c-18.2-0.3-31.9-14.4-31.7-30.4
					C429.9,1228.7,444,1215,462.2,1215.2z M463,1448.6c-5.4-0.1-9.6-4.4-9.5-9.8l2.1-142.3c2.1,0,4.3,0.1,6.4,0.1
					c4.3,0.1,9.6-0.9,13.9-1.9l-2.1,143.4C472.7,1444.5,468.4,1448.7,463,1448.6z M509.1,1449.3c-5.4-0.1-9.6-4.4-9.5-9.8l2.1-141.3
					c2.1,0,4.3,0.1,6.4-1c4.2,3.3,8.5,6.5,13.8,8.8l-2,133.8C519.8,1445.2,515.5,1449.4,509.1,1449.3z M556.1,1450
					c-5.4-0.1-10.6-4.4-10.6-9.8l1.9-132.7c7.5-2,15.1-6.2,20.5-11.5l-2.1,143.4C565.8,1445.8,561.5,1450.1,556.1,1450z
					 M620.1,1397.4c0,1.1-1.1,3.2-3.3,3.2l-21.4-0.3l1.2-80.3l21.4,0.3c1.1,0,3.2,1.1,3.2,3.3L620.1,1397.4z"/>
			</g>
		</g>
		<g class="st2">
			<path class="st3" d="M923.4,1179.3"/>
			<g id="_x32__9_">
				<g>
					<path class="st3" d="M901.8,1127.1c-56.8,35.4-77.4,104.1-46.5,153.7c17.7,28.4,48.4,44.3,82.1,45.7l28.2,45.3l28-55.2
						c7-2.7,13.6-6.3,20.3-10.5c56.8-35.4,77.4-104.1,46.5-153.7C1029.3,1103.4,958.2,1091.9,901.8,1127.1z M1005.7,1293.8
						c-7.5,4.7-15.1,8.3-23.2,11.1l-19,37l-18-29.8c-31.8,0.7-61.3-13.2-77.5-39.2c-26.5-42.6-7.7-101.9,42-132.9
						s111.2-21.7,137.8,20.9C1073.8,1203.7,1055,1263.1,1005.7,1293.8z"/>
				</g>
			</g>
			<g>
				<path class="st3" d="M985.7,1180.9l-11.8,7.4l-2.9-4.7c2.1-6.2,1.4-13.5-2.2-19.4c-6.9-11-21.7-13.8-32.8-6.9
					c-2,1.2-3.7,2.9-5.4,4.5c-6.4-1.5-13.4-0.4-19.3,3.3c-7.5,4.7-11.7,12.8-12.2,20.8c-8.7,7.1-10.9,19.4-5,28.8
					c3.9,6.3,10.3,9.5,17.2,10.1l39.5,63.5c1.7,2.8,5.3,3.3,8.5,1.3l50.1-31.2c3.2-2,4-5.8,2.6-8.2l-7.6-12.2l11.8-7.4
					c3.9-2.5,5.1-7.6,2.7-11.5l-21.6-34.7C995.2,1179.4,989.7,1178.5,985.7,1180.9z M906.8,1191.3c0.8-0.5,1.2-0.7,2-1.2
					c-1.9-6.5,1.2-13.9,7.5-17.8c5.9-3.7,12.6-3.5,17.9-0.2c1.4-3.1,3.4-6,6.6-7.9c7.5-4.7,16.8-2.8,21.3,4.3
					c4.4,7.1,1.9,16.3-5.5,21c0,0,0,0-0.4,0.2c0.8,3.9-0.9,8.2-4.8,10.7c-3.9,2.5-8.6,2.1-12-0.8c-0.8,2.2-2.3,4.2-4.7,5.7
					c-2.8,1.7-5.5,1.8-8.4,1.4c-1,2.8-3.3,5.3-6,7c-6.7,4.2-15,2.2-18.7-3.7C898.2,1203.8,900.1,1195.4,906.8,1191.3z M961.9,1276.2
					c-2,1.2-4.5,0.6-5.8-1.3l-32.7-52.4c0.8-0.5,1.6-1,2.4-1.5c1.6-1,3.3-2.6,4.6-4l32.9,52.8C964.5,1272.4,963.9,1275,961.9,1276.2
					z M978.9,1265.6c-2,1.2-4.5,0.6-5.8-1.3l-32.4-52c0.8-0.5,1.6-1,2.1-1.9c2.3,0.2,4.6,0.4,7.1,0l30.7,49.3
					C981.8,1261.6,981.2,1264.2,978.9,1265.6z M996.2,1254.8c-2,1.2-4.9,0.9-6.2-1.1l-30.5-48.9c2.3-2.5,4-5.8,4.8-9l32.9,52.8
					C998.8,1251,998.2,1253.6,996.2,1254.8z M1007.2,1220.6c0.2,0.4,0.3,1.4-0.4,1.9l-7.9,4.9l-18.4-29.6l7.9-4.9
					c0.4-0.2,1.4-0.3,1.9,0.4L1007.2,1220.6z"/>
			</g>
		</g>
		<g class="st2">
			<path class="st3" d="M47.8,1407"/>
			<g id="_x32__10_">
				<g>
					<path class="st3" d="M54.8,1351c-66.8,2.7-118.7,52.3-116.3,110.8c1.4,33.4,20.2,62.4,48.8,80.3l2.2,53.4l51.6-34.2
						c7.5,1.1,14.9,1.2,22.8,0.9c66.8-2.7,118.7-52.3,116.3-110.8C177.4,1393.3,121.2,1348.3,54.8,1351z M62.9,1547.3
						c-8.8,0.4-17.2-0.2-25.6-1.7l-34.9,22.8l-1-34.8c-28-15.1-46.8-41.8-48.1-72.4c-2.1-50.1,43.6-92.4,102.1-94.8
						s107.5,36,109.5,86.1C166.5,1502.6,120.9,1544.9,62.9,1547.3z"/>
				</g>
			</g>
			<g>
				<path class="st3" d="M101.2,1439.2l-13.9,0.6l-0.2-5.6c4.9-4.4,7.9-11,7.6-18c-0.5-13-12.1-22.7-25.1-22.2
					c-2.3,0.1-4.6,0.7-6.9,1.2c-4.8-4.4-11.4-7-18.4-6.7c-8.8,0.4-16.5,5.3-20.9,12c-11.1,1.8-19,11.5-18.6,22.6
					c0.3,7.4,4.3,13.3,10,17.3l3.1,74.7c0.1,3.2,3,5.5,6.7,5.3l58.9-2.4c3.7-0.2,6.4-3.1,6.3-5.8l-0.6-14.4l13.9-0.6
					c4.6-0.2,8.2-4.1,8-8.7l-1.7-40.8C110.2,1442.6,105.8,1439,101.2,1439.2z M27.5,1409.3c0.9,0,1.4-0.1,2.3-0.1
					c1.6-6.6,7.9-11.5,15.3-11.8c7-0.3,12.7,3.2,15.7,8.7c2.7-2,5.9-3.5,9.6-3.6c8.8-0.4,16,5.8,16.4,14.2
					c0.3,8.4-6.3,15.1-15.2,15.5c0,0,0,0-0.5,0c-1.2,3.8-4.8,6.7-9.5,6.9c-4.6,0.2-8.5-2.4-10-6.6c-1.8,1.5-4.1,2.5-6.9,2.6
					c-3.2,0.1-5.6-1.2-8-2.9c-2.2,2-5.5,3-8.7,3.1c-7.9,0.3-14.2-5.5-14.5-12.4C13.8,1415.9,19.6,1409.6,27.5,1409.3z M33.5,1510.3
					c-2.3,0.1-4.3-1.7-4.3-4l-2.5-61.7c0.9,0,1.9-0.1,2.8-0.1c1.9-0.1,4.2-0.6,6-1.2l2.6,62.2C37.6,1508.3,35.8,1510.3,33.5,1510.3z
					 M53.4,1509.5c-2.3,0.1-4.3-1.7-4.3-4l-2.5-61.2c0.9,0,1.9-0.1,2.8-0.6c1.9,1.3,3.8,2.6,6.2,3.5l2.4,58
					C58,1507.5,56.2,1509.4,53.4,1509.5z M73.8,1508.7c-2.3,0.1-4.7-1.7-4.8-4l-2.4-57.5c3.2-1.1,6.4-3.1,8.6-5.5l2.6,62.2
					C77.9,1506.7,76.2,1508.6,73.8,1508.7z M100.3,1484.4c0,0.5-0.4,1.4-1.3,1.4l-9.3,0.4l-1.4-34.8l9.3-0.4c0.5,0,1.4,0.4,1.4,1.3
					L100.3,1484.4z"/>
			</g>
		</g>
		<g class="st2">
			<path class="st3" d="M1070.5,495.9"/>
			<g id="_x32__11_">
				<g>
					<path class="st3" d="M1055.3,414.5c-92.1,33.5-142.5,125.8-113.2,206.4c16.8,46,56,78.1,103.9,90.4l26.8,73.5l56.8-70.7
						c10.9-1.8,21.4-4.9,32.3-8.9c92.1-33.5,142.5-125.8,113.2-206.4C1245.3,419.2,1146.7,381.2,1055.3,414.5z M1153.8,685
						c-12.2,4.4-24.1,7.3-36.6,9l-38.5,47.4l-16.8-48.2c-45.9-8.6-83.9-37.5-99.3-79.7C937.4,544.4,982.4,465,1063,435.6
						c80.6-29.4,166.1,2.5,191.2,71.6C1278.7,576.5,1233.8,655.9,1153.8,685z"/>
				</g>
			</g>
			<g>
				<path class="st3" d="M1159.3,517.1l-19.2,7l-2.8-7.7c4.9-8.3,6.2-18.9,2.7-28.5c-6.5-17.9-27-26.4-44.9-19.9
					c-3.2,1.2-6.2,3-9.1,4.8c-8.7-4.1-19.1-4.6-28.7-1.1c-12.2,4.4-20.7,14.8-23.8,26.1c-14.6,7.5-21.5,24.5-15.9,39.8
					c3.7,10.2,11.9,16.7,21.6,19.6l37.5,103c1.6,4.5,6.6,6.3,11.7,4.4l81.2-29.6c5.1-1.9,7.6-7.1,6.2-10.9l-7.2-19.8l19.2-7
					c6.4-2.3,9.6-9.3,7.3-15.7l-20.5-56.3C1173.3,517.8,1165.7,514.8,1159.3,517.1z M1043,508.1c1.3-0.5,1.9-0.7,3.2-1.2
					c-0.7-9.9,5.9-19.5,16.2-23.3c9.6-3.5,19.1-1.2,25.8,5.1c2.9-4,6.7-7.5,11.8-9.4c12.2-4.4,25,1,29.2,12.5
					c4.2,11.5-2.1,24-14.3,28.4c0,0,0,0-0.6,0.2c-0.1,5.8-3.8,11.5-10.2,13.8c-6.4,2.3-12.9,0.4-16.9-4.7c-1.9,2.9-4.6,5.3-8.4,6.7
					c-4.5,1.6-8.4,0.9-12.5-0.5c-2.3,3.7-6.3,6.6-10.8,8.3c-10.9,4-22.2-1.3-25.7-10.9C1026.9,523.4,1032.1,512,1043,508.1z
					 M1096.4,646.6c-3.2,1.2-6.7-0.5-7.9-3.7l-31-85.1c1.3-0.5,2.6-0.9,3.8-1.4c2.6-0.9,5.5-2.7,7.8-4.3l31.2,85.7
					C1101.2,641.9,1099.6,645.4,1096.4,646.6z M1123.9,636.6c-3.2,1.2-6.7-0.5-7.9-3.7l-30.8-84.4c1.3-0.5,2.6-0.9,3.6-2
					c3.3,1,6.5,2,10.2,2.1l29.1,79.9C1129.3,631.7,1127.7,635.2,1123.9,636.6z M1152,626.3c-3.2,1.2-7.3-0.2-8.5-3.4l-28.9-79.3
					c4-2.9,7.6-7.1,9.6-11.5l31.2,85.7C1156.8,621.6,1155.2,625.1,1152,626.3z M1178.1,580.6c0.2,0.6,0.1,2.2-1.2,2.6l-12.8,4.7
					l-17.5-48l12.8-4.7c0.6-0.2,2.2-0.1,2.6,1.2L1178.1,580.6z"/>
			</g>
		</g>
	</g>
</g>
</svg>
