<?xml version="1.0" encoding="utf-8"?>
<!-- Generator: Adobe Illustrator 19.1.0, SVG Export Plug-In . SVG Version: 6.00 Build 0)  -->
<svg version="1.1" id="Layer_1" xmlns="http://www.w3.org/2000/svg" xmlns:xlink="http://www.w3.org/1999/xlink" x="0px" y="0px"
	 viewBox="-111 715 442.6 172" style="enable-background:new -111 715 442.6 172;" xml:space="preserve">
<style type="text/css">
	.st0{enable-background:new    ;}
	.st1{fill:#302F2A;}
	.st2{fill:#F26441;}
</style>
<g>
	<g class="st0">
		<path class="st1" d="M-76.3,834.5V829l6.1-0.5c0.8-0.1,1-0.4,1-1.4v-36h-5.3c-0.6,0-0.8,0.1-0.9,0.8l-1,6.1h-7.4v-14.6h39.6V798
			h-7.3l-1-6.1c-0.1-0.7-0.4-0.8-1-0.8h-5.3v36c0,1,0.1,1.3,1,1.3l6.6,0.6v5.5H-76.3z"/>
	</g>
	<g class="st0">
		<path class="st1" d="M-40.1,834.5v-5l3.4-0.4c0.8-0.1,0.8-0.3,0.8-1.3v-32.6c0-1-0.1-1.1-0.8-1.3l-3.4-0.4v-5h29.4v12.8l-6.7-0.3
			l-0.8-4.8c-0.1-0.6-0.3-0.8-0.9-0.8h-7.4v12.5h12.2v7.1h-12.2v12.8h8.5c0.6,0,0.8-0.1,0.9-0.7l0.8-5.6h6.7v13.1H-40.1z"/>
		<path class="st1" d="M15,834.5v-5l3.7-0.6l-6.7-11.4L6.1,829l3.6,0.6v5H-6v-5l3.2-0.7c0.6-0.1,1.1-0.5,1.5-1.2l9.2-16.3l-9.8-16
			c-0.4-0.6-0.6-0.9-1.3-1.1l-2.9-0.7l0.6-5h17.7v5L8.3,794l6.3,11.2l6.5-11.2l-3.7-0.5l0.6-5h14.4v5l-2.7,0.7
			c-0.7,0.2-1,0.6-1.4,1.2l-9.2,15.9l10.1,16.3c0.4,0.7,0.8,1,1.4,1.2l3,0.7v5H15z"/>
		<path class="st1" d="M42.5,834.5v-5l5.5-0.4c0.8-0.1,0.9-0.3,0.9-1.3v-32.4h-4.8c-0.6,0-0.8,0.1-0.8,0.7l-0.9,5.5h-6.7v-13.2h35.7
			v13.2h-6.6l-0.9-5.5c-0.1-0.6-0.3-0.7-0.9-0.7h-4.8v32.4c0,0.9,0.1,1.1,0.9,1.2l6,0.5v5H42.5z"/>
		<path class="st1" d="M75.3,834.5v-5l3.4-0.4c0.8-0.1,0.8-0.3,0.8-1.3v-32.6c0-1-0.1-1.1-0.8-1.3l-3.4-0.4v-5h29.4v12.8L98,801
			l-0.8-4.8c-0.1-0.6-0.3-0.8-0.9-0.8H89v12.5h12.2v7.1H89v12.8h8.5c0.6,0,0.8-0.1,0.9-0.7l0.8-5.6h6.7v13.1H75.3z"/>
		<path class="st1" d="M134.8,834.5l-5.1-16c-0.7-2.2-1.3-2.9-2.8-2.9h-2.5v12.1c0,1,0.1,1.1,0.9,1.3l2.9,0.5v5h-17.4v-5l3.4-0.4
			c0.8-0.1,0.8-0.3,0.8-1.3v-32.6c0-1-0.1-1.1-0.8-1.3l-3.4-0.4v-5h19c9.8,0,12.9,6,12.9,12.4c0,6.9-3.1,10-7.2,12.1
			c2.1,0.9,3,2.5,3.9,5.5l3.1,9c0.3,0.9,0.7,1.3,1.7,1.5l3,0.6v5H134.8z M126.7,809.1c3.6,0,6.3-1.1,6.3-7.3c0-5-2-6.4-5.9-6.4h-2.7
			v13.7H126.7z"/>
		<path class="st1" d="M171.1,834.5v-5l4.4-0.6l-1.7-6.6h-13l-1.6,6.6l4.3,0.6v5h-16v-5l2.4-0.7c0.6-0.2,1.1-0.4,1.3-1.2l11.9-39.2
			h10.7l11.7,39.3c0.3,0.8,0.6,0.9,1.3,1.1l2.5,0.7v5H171.1z M167.7,798.3h-0.4l-4.6,17.2h9.4L167.7,798.3z"/>
		<path class="st1" d="M194,834.5v-5l5.5-0.4c0.8-0.1,0.9-0.3,0.9-1.3v-32.4h-4.8c-0.6,0-0.8,0.1-0.8,0.7l-0.9,5.5h-6.7v-13.2H223
			v13.2h-6.6l-0.9-5.5c-0.1-0.6-0.3-0.7-0.9-0.7h-4.8v32.4c0,0.9,0.1,1.1,0.9,1.2l6,0.5v5H194z"/>
		<path class="st1" d="M225.6,811.7c0-13.7,5.7-24,19.6-24c13.8,0,18.6,10.4,18.6,23.1c0,14.9-5.5,24.5-19.4,24.5
			C230.3,835.3,225.6,825.4,225.6,811.7z M254.1,811.4c0-11-2.8-15.9-9-15.9c-6.4,0-9.8,5-9.8,16c0,11.4,3.1,16,9.5,16
			C250.9,827.4,254.1,823.1,254.1,811.4z"/>
		<path class="st1" d="M292,834.5l-5.1-16c-0.7-2.2-1.3-2.9-2.8-2.9h-2.5v12.1c0,1,0.1,1.1,0.9,1.3l2.9,0.5v5H268v-5l3.4-0.4
			c0.8-0.1,0.8-0.3,0.8-1.3v-32.6c0-1-0.1-1.1-0.8-1.3l-3.4-0.4v-5h19c9.8,0,12.9,6,12.9,12.4c0,6.9-3.1,10-7.2,12.1
			c2.1,0.9,3,2.5,3.9,5.5l3.1,9c0.3,0.9,0.7,1.3,1.7,1.5l3,0.6v5H292z M283.9,809.1c3.6,0,6.3-1.1,6.3-7.3c0-5-2-6.4-5.9-6.4h-2.7
			v13.7H283.9z"/>
	</g>
</g>
<g>
	<g>
		<path class="st2" d="M140.6,763.7c-1.4,2.1-3,4-4.7,5.7h159.8v-3L140.6,763.7z"/>
	</g>
	<g>
		<path class="st2" d="M79,763.7l-154.2,2.7v3H83.6C81.9,767.7,80.4,765.8,79,763.7z"/>
	</g>
</g>
<g>
	<g>
		<path class="st2" d="M108.2,743.4"/>
	</g>
	<g id="_x32__4_">
		<g>
			<g>
				<path class="st2" d="M110.2,731.4c-14.4,0-26,10.2-26,22.8c0,7.2,3.8,13.6,9.8,17.7v11.5l11.4-6.9c1.6,0.3,3.2,0.4,4.9,0.4
					c14.4,0,26-10.2,26-22.8C136.2,741.6,124.5,731.4,110.2,731.4z M110.2,773.7c-1.9,0-3.7-0.2-5.5-0.6l-7.7,4.6l0.1-7.5
					c-5.9-3.5-9.7-9.4-9.7-16c0-10.8,10.2-19.5,22.8-19.5s22.8,8.7,22.8,19.5C132.9,765,122.7,773.7,110.2,773.7z"/>
			</g>
		</g>
	</g>
	<g>
		<g>
			<path class="st2" d="M119.4,750.8h-3v-1.2c1.1-0.9,1.8-2.3,1.8-3.8c0-2.8-2.4-5-5.2-5c-0.5,0-1,0.1-1.5,0.2c-1-1-2.4-1.6-3.9-1.6
				c-1.9,0-3.6,1-4.6,2.4c-2.4,0.3-4.2,2.3-4.2,4.7c0,1.6,0.8,2.9,2,3.8v16.1c0,0.7,0.6,1.2,1.4,1.2h12.7c0.8,0,1.4-0.6,1.4-1.2
				v-3.1h3c1,0,1.8-0.8,1.8-1.8v-8.8C121.3,751.6,120.4,750.8,119.4,750.8z M103.8,743.7c0.2,0,0.3,0,0.5,0c0.4-1.4,1.8-2.4,3.4-2.4
				c1.5,0,2.7,0.8,3.3,2c0.6-0.4,1.3-0.7,2.1-0.7c1.9,0,3.4,1.4,3.4,3.2s-1.5,3.2-3.4,3.2c0,0,0,0-0.1,0c-0.3,0.8-1.1,1.4-2.1,1.4
				s-1.8-0.6-2.1-1.5c-0.4,0.3-0.9,0.5-1.5,0.5c-0.7,0-1.2-0.3-1.7-0.7c-0.5,0.4-1.2,0.6-1.9,0.6c-1.7,0-3-1.3-3-2.8
				C100.8,745,102.1,743.7,103.8,743.7z M104.2,765.5c-0.5,0-0.9-0.4-0.9-0.9v-13.3c0.2,0,0.4,0,0.6,0c0.4,0,0.9-0.1,1.3-0.2v13.4
				C105.1,765.1,104.7,765.5,104.2,765.5z M108.5,765.5c-0.5,0-0.9-0.4-0.9-0.9v-13.2c0.2,0,0.4,0,0.6-0.1c0.4,0.3,0.8,0.6,1.3,0.8
				v12.5C109.5,765.1,109.1,765.5,108.5,765.5z M112.9,765.5c-0.5,0-1-0.4-1-0.9v-12.4c0.7-0.2,1.4-0.6,1.9-1.1v13.4
				C113.8,765.1,113.4,765.5,112.9,765.5z M118.8,760.5c0,0.1-0.1,0.3-0.3,0.3h-2v-7.5h2c0.1,0,0.3,0.1,0.3,0.3V760.5z"/>
		</g>
	</g>
</g>
<g class="st0">
	<path class="st2" d="M66,861.2l7.6-11.1c0.5-0.8,1-1.3,1-1.3v0c0,0-0.4,0-1.1,0h-7.2v-1.3h10.1v1l-7.6,11.1c-0.5,0.8-1,1.3-1,1.3v0
		c0,0,0.4,0,1.1,0h7.6v1.3H66V861.2z"/>
	<path class="st2" d="M80.7,847.4h1.4v14.8h-1.4V847.4z"/>
	<path class="st2" d="M87.5,847.4h5.1c2.6,0,4.6,1.7,4.6,4.5c0,2.8-1.9,4.5-4.6,4.5h-3.7v5.8h-1.4V847.4z M92.4,855.1
		c2,0,3.3-1.2,3.3-3.2c0-2-1.3-3.2-3.2-3.2h-3.5v6.4H92.4z"/>
	<path class="st2" d="M108.5,849.6c0,0-0.2,1.3-0.5,2.2l-2.8,10.4h-1.7l-3.8-14.8h1.5l2.9,11.5c0.2,0.8,0.3,1.6,0.3,1.6h0
		c0,0,0.1-0.8,0.3-1.6l3.1-11.5h1.4l3.1,11.5c0.2,0.8,0.3,1.6,0.3,1.6h0c0,0,0.1-0.8,0.3-1.6l3-11.5h1.5l-3.9,14.8h-1.7l-2.8-10.4
		C108.8,850.8,108.6,849.6,108.5,849.6L108.5,849.6z"/>
	<path class="st2" d="M121.5,847.4h1.4v6.7h8.6v-6.7h1.4v14.8h-1.4v-6.7h-8.6v6.7h-1.4V847.4z"/>
	<path class="st2" d="M138.2,847.4h1.4v14.8h-1.4V847.4z"/>
	<path class="st2" d="M144.9,847.4h5.1c2.6,0,4.6,1.7,4.6,4.5c0,2.8-1.9,4.5-4.6,4.5h-3.7v5.8h-1.4V847.4z M149.8,855.1
		c2,0,3.3-1.2,3.3-3.2c0-2-1.3-3.2-3.2-3.2h-3.5v6.4H149.8z"/>
</g>
<g>
	<g>
		<polygon class="st2" points="46.8,851 -62.2,851 -62.2,853 47.8,856 		"/>
	</g>
	<g>
		<polygon class="st2" points="174.8,851 282.8,851 282.8,853 173.8,856 		"/>
	</g>
</g>
<g>
	<g class="st0">
		<path class="st1" d="M431.4,539.8h-9.7v-3.4H445v3.4h-9.7v24.8h-4V539.8z"/>
		<path class="st1" d="M456.5,543.9c5.7,0,8.8,4.2,8.8,9.5c0,0.5-0.1,1.7-0.1,1.7h-14.8c0.2,4.4,3.4,6.7,7,6.7c3.5,0,6-2.4,6-2.4
			l1.6,2.8c0,0-3,2.9-7.8,2.9c-6.4,0-10.7-4.6-10.7-10.6C446.4,548,450.7,543.9,456.5,543.9z M461.3,552.1c-0.1-3.5-2.3-5.2-4.9-5.2
			c-3,0-5.4,1.8-5.9,5.2H461.3z"/>
		<path class="st1" d="M480,556.7c0,0-0.3,0.6-0.6,1.1l-4.2,6.8h-4.4l6.9-10.4l-6.5-9.8h4.4l3.8,6.2c0.3,0.5,0.7,1.2,0.7,1.2h0.1
			c0,0,0.4-0.7,0.7-1.2l3.8-6.2h4.4l-6.5,9.8l6.9,10.4H485l-4.2-6.8C480.4,557.4,480.1,556.7,480,556.7L480,556.7z"/>
		<path class="st1" d="M497.1,547.8h-2.6v-3.1h2.8v-5.8h3.8v5.8h4.9v3.1H501v9c0,4,2.8,4.6,4.3,4.6c0.6,0,0.9-0.1,0.9-0.1v3.4
			c0,0-0.6,0.1-1.4,0.1c-2.6,0-7.8-0.8-7.8-7.6V547.8z"/>
	</g>
	<g class="st0">
		<path class="st1" d="M530.6,536h10.5c5.7,0,9.7,2.6,9.7,7.5c0,2.4-1.2,4.8-3.3,6.1v0.1c3.3,1,4.5,3.9,4.5,6.4
			c0,6.2-5.2,8.5-10.9,8.5h-10.5V536z M541.2,547.1c1.8,0,2.5-1.3,2.5-2.6c0-1.3-0.8-2.4-2.6-2.4h-3.5v5.1H541.2z M541.8,558.6
			c2,0,3-1.4,3-3c0-1.6-1-2.9-3-2.9h-4.2v5.9H541.8z"/>
		<path class="st1" d="M560,536h17.9v6H567v5.2h8.7v6H567v5.4h11.5v6H560V536z"/>
		<path class="st1" d="M586.5,536h17.9v6h-10.9v5.2h8.7v6h-8.7v5.4H605v6h-18.5V536z"/>
		<path class="st1" d="M613,536h10c2.9,0,4.3,0.2,5.6,0.7c3.2,1.2,5.3,4.2,5.3,8.3c0,3-1.4,6.4-4.3,7.8v0.1c0,0,0.4,0.5,1.1,1.7
			l5.6,10h-7.8l-5.1-9.6H620v9.6h-7V536z M623.1,549c2.2,0,3.6-1.2,3.6-3.5c0-2.2-0.8-3.4-4.3-3.4H620v7H623.1z"/>
	</g>
	<g class="st0">
		<path class="st1" d="M656.2,547.8h-2.6v-3.1h2.8v-5.8h3.8v5.8h4.9v3.1H660v9c0,4,2.8,4.6,4.3,4.6c0.6,0,0.9-0.1,0.9-0.1v3.4
			c0,0-0.6,0.1-1.4,0.1c-2.6,0-7.8-0.8-7.8-7.6V547.8z"/>
		<path class="st1" d="M682.1,543.9c6,0,10.9,4.4,10.9,10.6c0,6.2-4.9,10.6-10.9,10.6s-10.9-4.5-10.9-10.6
			C671.2,548.3,676,543.9,682.1,543.9z M682.1,561.7c3.8,0,7-3,7-7.3c0-4.2-3.1-7.2-7-7.2c-3.8,0-7,3-7,7.2
			C675.1,558.7,678.3,561.7,682.1,561.7z"/>
		<path class="st1" d="M713.8,551c0-5.8,1.7-11.1,4.6-15.8h3.4c-2.9,4.9-4.5,10.2-4.5,15.8c0,6,1.5,11.9,4.5,17.4h-3.4
			C715.5,563.6,713.8,557.4,713.8,551z"/>
		<path class="st1" d="M732.7,548.9c-1.8-1.3-3.2-3-3.2-5.6c0-3.8,2.8-7.4,8.8-7.4c5.2,0,8.9,2.9,8.9,7.6c0,3.8-3,7-3.4,7.4
			c2.2,1.3,3.8,3.1,3.8,6c0,4.4-3.8,8.3-9.7,8.3c-5.6,0-9.8-3.5-9.8-8.6C728.2,552.1,732,549.4,732.7,548.9z M735.6,550.6
			c-0.9,0.6-3.4,2.6-3.4,5.6c0,3.2,2.8,5.3,5.8,5.3c3,0,5.6-1.9,5.6-4.8C743.6,553.6,739.4,552.4,735.6,550.6z M740.9,549.2
			c0.4-0.4,2.5-2.6,2.5-5.6c0-2.6-2.1-4.2-5-4.2c-3.1,0-4.8,1.8-4.8,3.9C733.5,546.5,737.2,547.7,740.9,549.2z"/>
		<path class="st1" d="M754.4,554.6l13-18.2h4.5v17.3h3.8v3.4H772v7.6h-3.9V557h-13.7V554.6z M768.1,553.7v-10.3
			c0-1.3,0.2-2.8,0.2-2.8h-0.1c0,0-0.6,1.3-1.4,2.3l-8,10.7v0.1H768.1z"/>
		<path class="st1" d="M781.7,554.6l13-18.2h4.5v17.3h3.8v3.4h-3.8v7.6h-3.9V557h-13.7V554.6z M795.4,553.7v-10.3
			c0-1.3,0.2-2.8,0.2-2.8h-0.1c0,0-0.6,1.3-1.4,2.3l-8,10.7v0.1H795.4z"/>
		<path class="st1" d="M808.8,568.4c3-5.4,4.5-11.4,4.5-17.4c0-5.6-1.6-11-4.5-15.8h3.4c3,4.7,4.6,10,4.6,15.8
			c0,6.4-1.8,12.6-4.6,17.4H808.8z"/>
		<path class="st1" d="M826.2,563.9l1.3-3.4c0,0,1.8,1,4,1c5.2,0,7.9-4.8,8.5-9.5h-0.1c-1.2,1.6-3.8,2.6-6.2,2.6
			c-5.4,0-8.9-4-8.9-9.3c0-5.6,3.8-9.4,9.1-9.4c6,0,10.6,5.2,10.6,13.3c0,7.2-4,15.9-12.7,15.9C828.3,565.1,826.2,563.9,826.2,563.9
			z M840.2,547.3c0-3.7-2.8-7.8-6.4-7.8c-3.3,0-5.2,2.5-5.2,5.8c0,3.4,2.2,6,5.8,6C837.6,551.3,840.2,549.3,840.2,547.3z"/>
		<path class="st1" d="M851,554.6l13-18.2h4.5v17.3h3.8v3.4h-3.8v7.6h-3.9V557H851V554.6z M864.6,553.7v-10.3c0-1.3,0.2-2.8,0.2-2.8
			h-0.1c0,0-0.6,1.3-1.4,2.3l-8,10.7v0.1H864.6z"/>
		<path class="st1" d="M891.4,542.4c0.8-1.6,1.6-2.6,1.6-2.6v-0.1c0,0-0.6,0.1-2.1,0.1h-12.6v-3.4h18.9v2.7l-12.8,25.5h-4.1
			L891.4,542.4z"/>
		<path class="st1" d="M904.7,551.5h11.7v3.4h-11.7V551.5z"/>
		<path class="st1" d="M927.1,558.3c0,0,2.2,3,6.2,3c3.3,0,6.2-2.3,6.2-5.7c0-3.4-2.8-5.8-6.4-5.8c-2.8,0-4.8,1.4-4.8,1.4l-2.3-0.8
			l1.4-14h14.2v3.4h-10.8l-0.7,6c0,0.8-0.2,1.5-0.2,1.5h0.1c0,0,1.6-0.9,3.6-0.9c6,0,9.8,4.1,9.8,9.2c0,5.4-4.3,9.5-10,9.5
			c-5.8,0-8.6-3.9-8.6-3.9L927.1,558.3z"/>
		<path class="st1" d="M951,550.4c0-8.1,2.4-14.6,10-14.6c7.6,0,10,6.4,10,14.6c0,8.2-2.4,14.6-10,14.6
			C953.5,565.1,951,558.6,951,550.4z M967,550.4c0-6.1-1.3-10.9-6-10.9c-4.6,0-5.9,4.8-5.9,10.9c0,6.2,1.3,11,5.9,11
			C965.6,561.4,967,556.6,967,550.4z"/>
		<path class="st1" d="M979,550.4c0-8.1,2.4-14.6,10-14.6c7.6,0,10,6.4,10,14.6c0,8.2-2.4,14.6-10,14.6
			C981.5,565.1,979,558.6,979,550.4z M995,550.4c0-6.1-1.3-10.9-6-10.9c-4.6,0-5.9,4.8-5.9,10.9c0,6.2,1.3,11,5.9,11
			C993.6,561.4,995,556.6,995,550.4z"/>
		<path class="st1" d="M1007,550.4c0-8.1,2.4-14.6,10-14.6c7.6,0,10,6.4,10,14.6c0,8.2-2.4,14.6-10,14.6
			C1009.5,565.1,1007,558.6,1007,550.4z M1023,550.4c0-6.1-1.3-10.9-6-10.9c-4.6,0-5.9,4.8-5.9,10.9c0,6.2,1.3,11,5.9,11
			C1021.6,561.4,1023,556.6,1023,550.4z"/>
	</g>
</g>
</svg>
