<?xml version="1.0" encoding="utf-8"?>
<!-- Generator: Adobe Illustrator 19.1.0, SVG Export Plug-In . SVG Version: 6.00 Build 0)  -->
<svg version="1.1" id="Layer_1" xmlns="http://www.w3.org/2000/svg" xmlns:xlink="http://www.w3.org/1999/xlink" x="0px" y="0px"
	 viewBox="-111 715 1177 172" style="enable-background:new -111 715 1177 172;" xml:space="preserve">
<style type="text/css">
	.st0{enable-background:new    ;}
	.st1{fill:#302F2A;}
	.st2{fill:#F26441;}
</style>
<g>
	<g>
		<g class="st0">
			<path class="st1" d="M-74.8,834.5V829l6.1-0.5c0.8-0.1,1-0.4,1-1.4v-36h-5.3c-0.6,0-0.8,0.1-0.9,0.8l-1,6.1h-7.4v-14.6h39.6V798
				h-7.3l-1-6.1c-0.1-0.7-0.4-0.8-1-0.8h-5.3v36c0,1,0.1,1.3,1,1.3l6.6,0.6v5.5H-74.8z"/>
		</g>
		<g class="st0">
			<path class="st1" d="M-38.5,834.5v-5l3.4-0.4c0.8-0.1,0.8-0.3,0.8-1.3v-32.6c0-1-0.1-1.1-0.8-1.3l-3.4-0.4v-5h29.4v12.8l-6.7-0.3
				l-0.8-4.8c-0.1-0.6-0.3-0.8-0.9-0.8h-7.4v12.5h12.2v7.1h-12.2v12.8h8.5c0.6,0,0.8-0.1,0.9-0.7l0.8-5.6H-8v13.1H-38.5z"/>
			<path class="st1" d="M16.6,834.5v-5l3.7-0.6l-6.7-11.4L7.7,829l3.6,0.6v5H-4.5v-5l3.2-0.7c0.6-0.1,1.1-0.5,1.5-1.2l9.2-16.3
				l-9.8-16c-0.4-0.6-0.6-0.9-1.3-1.1l-2.9-0.7l0.6-5h17.7v5L9.9,794l6.3,11.2l6.5-11.2l-3.7-0.5l0.6-5h14.4v5l-2.7,0.7
				c-0.7,0.2-1,0.6-1.4,1.2l-9.2,15.9l10.1,16.3c0.4,0.7,0.8,1,1.4,1.2l3,0.7v5H16.6z"/>
			<path class="st1" d="M44,834.5v-5l5.5-0.4c0.8-0.1,0.9-0.3,0.9-1.3v-32.4h-4.8c-0.6,0-0.8,0.1-0.8,0.7l-0.9,5.5h-6.7v-13.2H73
				v13.2h-6.6l-0.9-5.5c-0.1-0.6-0.3-0.7-0.9-0.7h-4.8v32.4c0,0.9,0.1,1.1,0.9,1.2l6,0.5v5H44z"/>
			<path class="st1" d="M76.9,834.5v-5l3.4-0.4c0.8-0.1,0.8-0.3,0.8-1.3v-32.6c0-1-0.1-1.1-0.8-1.3l-3.4-0.4v-5h29.4v12.8l-6.7-0.3
				l-0.8-4.8c-0.1-0.6-0.3-0.8-0.9-0.8h-7.4v12.5h12.2v7.1H90.6v12.8h8.5c0.6,0,0.8-0.1,0.9-0.7l0.8-5.6h6.7v13.1H76.9z"/>
			<path class="st1" d="M136.4,834.5l-5.1-16c-0.7-2.2-1.3-2.9-2.8-2.9h-2.5v12.1c0,1,0.1,1.1,0.9,1.3l2.9,0.5v5h-17.4v-5l3.4-0.4
				c0.8-0.1,0.8-0.3,0.8-1.3v-32.6c0-1-0.1-1.1-0.8-1.3l-3.4-0.4v-5h19c9.8,0,12.9,6,12.9,12.4c0,6.9-3.1,10-7.2,12.1
				c2.1,0.9,3,2.5,3.9,5.5l3.1,9c0.3,0.9,0.7,1.3,1.7,1.5l3,0.6v5H136.4z M128.2,809.1c3.6,0,6.3-1.1,6.3-7.3c0-5-2-6.4-5.9-6.4
				h-2.7v13.7H128.2z"/>
			<path class="st1" d="M172.6,834.5v-5l4.4-0.6l-1.7-6.6h-13l-1.6,6.6l4.3,0.6v5h-16v-5l2.4-0.7c0.6-0.2,1.1-0.4,1.3-1.2l11.9-39.2
				h10.7l11.7,39.3c0.3,0.8,0.6,0.9,1.3,1.1l2.5,0.7v5H172.6z M169.2,798.3h-0.4l-4.6,17.2h9.4L169.2,798.3z"/>
			<path class="st1" d="M195.6,834.5v-5l5.5-0.4c0.8-0.1,0.9-0.3,0.9-1.3v-32.4h-4.8c-0.6,0-0.8,0.1-0.8,0.7l-0.9,5.5h-6.7v-13.2
				h35.7v13.2H218l-0.9-5.5c-0.1-0.6-0.3-0.7-0.9-0.7h-4.8v32.4c0,0.9,0.1,1.1,0.9,1.2l6,0.5v5H195.6z"/>
			<path class="st1" d="M227.1,811.7c0-13.7,5.7-24,19.6-24c13.8,0,18.6,10.4,18.6,23.1c0,14.9-5.5,24.5-19.4,24.5
				C231.9,835.3,227.1,825.4,227.1,811.7z M255.7,811.4c0-11-2.8-15.9-9-15.9c-6.4,0-9.8,5-9.8,16c0,11.4,3.1,16,9.5,16
				C252.5,827.4,255.7,823.1,255.7,811.4z"/>
			<path class="st1" d="M293.6,834.5l-5.1-16c-0.7-2.2-1.3-2.9-2.8-2.9h-2.5v12.1c0,1,0.1,1.1,0.9,1.3l2.9,0.5v5h-17.4v-5l3.4-0.4
				c0.8-0.1,0.8-0.3,0.8-1.3v-32.6c0-1-0.1-1.1-0.8-1.3l-3.4-0.4v-5h19c9.8,0,12.9,6,12.9,12.4c0,6.9-3.1,10-7.2,12.1
				c2.1,0.9,3,2.5,3.9,5.5l3.1,9c0.3,0.9,0.7,1.3,1.7,1.5l3,0.6v5H293.6z M285.4,809.1c3.6,0,6.3-1.1,6.3-7.3c0-5-2-6.4-5.9-6.4
				h-2.7v13.7H285.4z"/>
		</g>
	</g>
	<g>
		<path class="st2" d="M141.5,763.7c-1.4,2.1-3,4-4.7,5.7h159.8v-3L141.5,763.7z"/>
	</g>
	<g>
		<path class="st2" d="M79.9,763.7l-154.2,2.7v3H84.5C82.8,767.7,81.3,765.8,79.9,763.7z"/>
	</g>
	<g>
		<g>
			<path class="st2" d="M109.5,743.4"/>
		</g>
		<g id="_x32__4_">
			<g>
				<g>
					<path class="st2" d="M111.5,731.4c-14.4,0-26,10.2-26,22.8c0,7.2,3.8,13.6,9.8,17.7v11.5l11.4-6.9c1.6,0.3,3.2,0.4,4.9,0.4
						c14.4,0,26-10.2,26-22.8C137.5,741.6,125.8,731.4,111.5,731.4z M111.5,773.7c-1.9,0-3.7-0.2-5.5-0.6l-7.7,4.6l0.1-7.5
						c-5.9-3.5-9.7-9.4-9.7-16c0-10.8,10.2-19.5,22.8-19.5s22.8,8.7,22.8,19.5C134.2,765,124,773.7,111.5,773.7z"/>
				</g>
			</g>
		</g>
		<g>
			<g>
				<path class="st2" d="M120.7,750.8h-3v-1.2c1.1-0.9,1.8-2.3,1.8-3.8c0-2.8-2.4-5-5.2-5c-0.5,0-1,0.1-1.5,0.2
					c-1-1-2.4-1.6-3.9-1.6c-1.9,0-3.6,1-4.6,2.4c-2.4,0.3-4.2,2.3-4.2,4.7c0,1.6,0.8,2.9,2,3.8v16.1c0,0.7,0.6,1.2,1.4,1.2h12.7
					c0.8,0,1.4-0.6,1.4-1.2v-3.1h3c1,0,1.8-0.8,1.8-1.8v-8.8C122.6,751.6,121.7,750.8,120.7,750.8z M105.1,743.7c0.2,0,0.3,0,0.5,0
					c0.4-1.4,1.8-2.4,3.4-2.4c1.5,0,2.7,0.8,3.3,2c0.6-0.4,1.3-0.7,2.1-0.7c1.9,0,3.4,1.4,3.4,3.2s-1.5,3.2-3.4,3.2c0,0,0,0-0.1,0
					c-0.3,0.8-1.1,1.4-2.1,1.4s-1.8-0.6-2.1-1.5c-0.4,0.3-0.9,0.5-1.5,0.5c-0.7,0-1.2-0.3-1.7-0.7c-0.5,0.4-1.2,0.6-1.9,0.6
					c-1.7,0-3-1.3-3-2.8C102.1,745,103.4,743.7,105.1,743.7z M105.5,765.5c-0.5,0-0.9-0.4-0.9-0.9v-13.3c0.2,0,0.4,0,0.6,0
					c0.4,0,0.9-0.1,1.3-0.2v13.4C106.4,765.1,106,765.5,105.5,765.5z M109.8,765.5c-0.5,0-0.9-0.4-0.9-0.9v-13.2
					c0.2,0,0.4,0,0.6-0.1c0.4,0.3,0.8,0.6,1.3,0.8v12.5C110.8,765.1,110.4,765.5,109.8,765.5z M114.2,765.5c-0.5,0-1-0.4-1-0.9
					v-12.4c0.7-0.2,1.4-0.6,1.9-1.1v13.4C115.1,765.1,114.7,765.5,114.2,765.5z M120.1,760.5c0,0.1-0.1,0.3-0.3,0.3h-2v-7.5h2
					c0.1,0,0.3,0.1,0.3,0.3V760.5z"/>
			</g>
		</g>
	</g>
	<g class="st0">
		<path class="st2" d="M56.7,861.2l7.6-11.1c0.5-0.8,1-1.3,1-1.3v0c0,0-0.4,0-1.1,0h-7.2v-1.3h10.1v1l-7.6,11.1
			c-0.5,0.8-1,1.3-1,1.3v0c0,0,0.4,0,1.1,0h7.6v1.3H56.7V861.2z"/>
		<path class="st2" d="M71.4,847.4h1.4v14.8h-1.4V847.4z"/>
		<path class="st2" d="M78.1,847.4h5.1c2.6,0,4.6,1.7,4.6,4.5c0,2.8-1.9,4.5-4.6,4.5h-3.7v5.8h-1.4V847.4z M83,855.1
			c2,0,3.3-1.2,3.3-3.2c0-2-1.3-3.2-3.2-3.2h-3.5v6.4H83z"/>
		<path class="st2" d="M99.2,849.6c0,0-0.2,1.3-0.5,2.2l-2.8,10.4h-1.7l-3.8-14.8h1.5l2.9,11.5c0.2,0.8,0.3,1.6,0.3,1.6h0
			c0,0,0.1-0.8,0.3-1.6l3.1-11.5h1.4l3.1,11.5c0.2,0.8,0.3,1.6,0.3,1.6h0c0,0,0.1-0.8,0.3-1.6l3-11.5h1.5l-3.9,14.8h-1.7l-2.8-10.4
			C99.5,850.8,99.2,849.6,99.2,849.6L99.2,849.6z"/>
		<path class="st2" d="M112.1,847.4h1.4v6.7h8.6v-6.7h1.4v14.8h-1.4v-6.7h-8.6v6.7h-1.4V847.4z"/>
		<path class="st2" d="M128.9,847.4h1.4v14.8h-1.4V847.4z"/>
		<path class="st2" d="M135.6,847.4h5.1c2.6,0,4.6,1.7,4.6,4.5c0,2.8-1.9,4.5-4.6,4.5H137v5.8h-1.4V847.4z M140.5,855.1
			c2,0,3.3-1.2,3.3-3.2c0-2-1.3-3.2-3.2-3.2H137v6.4H140.5z"/>
	</g>
	<g>
		<g>
			<polygon class="st2" points="47.7,851 -61.3,851 -61.3,853 48.7,856 			"/>
		</g>
		<g>
			<polygon class="st2" points="175.7,851 283.7,851 283.7,853 174.7,856 			"/>
		</g>
	</g>
</g>
<g>
	<g class="st0">
		<path class="st1" d="M424.5,801h-9.7v-3.4h23.3v3.4h-9.7v24.8h-4V801z"/>
		<path class="st1" d="M449.6,805.1c5.7,0,8.8,4.2,8.8,9.5c0,0.5-0.1,1.7-0.1,1.7h-14.8c0.2,4.4,3.4,6.7,7,6.7c3.5,0,6-2.4,6-2.4
			l1.6,2.8c0,0-3,2.9-7.8,2.9c-6.4,0-10.7-4.6-10.7-10.6C439.5,809.2,443.9,805.1,449.6,805.1z M454.4,813.3
			c-0.1-3.5-2.3-5.2-4.9-5.2c-3,0-5.4,1.8-5.9,5.2H454.4z"/>
		<path class="st1" d="M473.2,817.9c0,0-0.3,0.6-0.6,1.1l-4.2,6.8H464l6.9-10.4l-6.5-9.8h4.4l3.8,6.2c0.3,0.5,0.7,1.2,0.7,1.2h0.1
			c0,0,0.4-0.7,0.7-1.2l3.8-6.2h4.4l-6.5,9.8l6.9,10.4h-4.4l-4.2-6.8C473.6,818.6,473.3,817.9,473.2,817.9L473.2,817.9z"/>
		<path class="st1" d="M490.3,809h-2.6v-3.1h2.8V800h3.8v5.8h4.9v3.1h-4.9v9c0,4,2.8,4.6,4.3,4.6c0.6,0,0.9-0.1,0.9-0.1v3.4
			c0,0-0.6,0.1-1.4,0.1c-2.6,0-7.8-0.8-7.8-7.6V809z"/>
	</g>
	<g class="st0">
		<path class="st1" d="M523.8,797.2h10.5c5.7,0,9.7,2.6,9.7,7.5c0,2.4-1.2,4.8-3.3,6.1v0.1c3.3,1,4.5,3.9,4.5,6.4
			c0,6.2-5.2,8.5-10.9,8.5h-10.5V797.2z M534.4,808.3c1.8,0,2.5-1.3,2.5-2.6c0-1.3-0.8-2.4-2.6-2.4h-3.5v5.1H534.4z M535,819.8
			c2,0,3-1.4,3-3c0-1.6-1-2.9-3-2.9h-4.2v5.9H535z"/>
		<path class="st1" d="M553.2,797.2h17.9v6h-10.9v5.2h8.7v6h-8.7v5.4h11.5v6h-18.5V797.2z"/>
		<path class="st1" d="M579.7,797.2h17.9v6h-10.9v5.2h8.7v6h-8.7v5.4h11.5v6h-18.5V797.2z"/>
		<path class="st1" d="M606.2,797.2h10c2.9,0,4.3,0.2,5.6,0.7c3.2,1.2,5.3,4.2,5.3,8.3c0,3-1.4,6.4-4.3,7.8v0.1c0,0,0.4,0.5,1.1,1.7
			l5.6,10h-7.8l-5.1-9.6h-3.3v9.6h-7V797.2z M616.2,810.2c2.2,0,3.6-1.2,3.6-3.5c0-2.2-0.8-3.4-4.3-3.4h-2.4v7H616.2z"/>
	</g>
	<g class="st0">
		<path class="st1" d="M649.3,809h-2.6v-3.1h2.8V800h3.8v5.8h4.9v3.1h-4.9v9c0,4,2.8,4.6,4.3,4.6c0.6,0,0.9-0.1,0.9-0.1v3.4
			c0,0-0.6,0.1-1.4,0.1c-2.6,0-7.8-0.8-7.8-7.6V809z"/>
		<path class="st1" d="M675.2,805.1c6,0,10.9,4.4,10.9,10.6c0,6.2-4.9,10.6-10.9,10.6s-10.9-4.5-10.9-10.6
			C664.3,809.5,669.2,805.1,675.2,805.1z M675.2,822.9c3.8,0,7-3,7-7.3c0-4.2-3.1-7.2-7-7.2c-3.8,0-7,3-7,7.2
			C668.3,819.9,671.4,822.9,675.2,822.9z"/>
		<path class="st1" d="M706.9,812.2c0-5.8,1.7-11.1,4.6-15.8h3.4c-2.9,4.9-4.5,10.2-4.5,15.8c0,6,1.5,11.9,4.5,17.4h-3.4
			C708.7,824.8,706.9,818.6,706.9,812.2z"/>
		<path class="st1" d="M725.9,810.1c-1.8-1.3-3.2-3-3.2-5.6c0-3.8,2.8-7.4,8.8-7.4c5.2,0,8.9,2.9,8.9,7.6c0,3.8-3,7-3.4,7.4
			c2.2,1.3,3.8,3.1,3.8,6c0,4.4-3.8,8.3-9.7,8.3c-5.6,0-9.8-3.5-9.8-8.6C721.4,813.3,725.1,810.6,725.9,810.1z M728.8,811.8
			c-0.9,0.6-3.4,2.6-3.4,5.6c0,3.2,2.8,5.3,5.8,5.3c3,0,5.6-1.9,5.6-4.8C736.8,814.8,732.6,813.6,728.8,811.8z M734,810.4
			c0.4-0.4,2.5-2.6,2.5-5.6c0-2.6-2.1-4.2-5-4.2c-3.1,0-4.8,1.8-4.8,3.9C726.6,807.7,730.4,808.9,734,810.4z"/>
		<path class="st1" d="M747.6,815.8l13-18.2h4.5v17.3h3.8v3.4h-3.8v7.6h-3.9v-7.6h-13.7V815.8z M761.3,814.9v-10.3
			c0-1.3,0.2-2.8,0.2-2.8h-0.1c0,0-0.6,1.3-1.4,2.3l-8,10.7v0.1H761.3z"/>
		<path class="st1" d="M774.8,815.8l13-18.2h4.5v17.3h3.8v3.4h-3.8v7.6h-3.9v-7.6h-13.7V815.8z M788.5,814.9v-10.3
			c0-1.3,0.2-2.8,0.2-2.8h-0.1c0,0-0.6,1.3-1.4,2.3l-8,10.7v0.1H788.5z"/>
		<path class="st1" d="M802,829.6c3-5.4,4.5-11.4,4.5-17.4c0-5.6-1.6-11-4.5-15.8h3.4c3,4.7,4.6,10,4.6,15.8
			c0,6.4-1.8,12.6-4.6,17.4H802z"/>
		<path class="st1" d="M819.3,825.1l1.3-3.4c0,0,1.8,1,4,1c5.2,0,7.9-4.8,8.5-9.5H833c-1.2,1.6-3.8,2.6-6.2,2.6
			c-5.4,0-8.9-4-8.9-9.3c0-5.6,3.8-9.4,9.1-9.4c6,0,10.6,5.2,10.6,13.3c0,7.2-4,15.9-12.7,15.9C821.4,826.3,819.3,825.1,819.3,825.1
			z M833.4,808.5c0-3.7-2.8-7.8-6.4-7.8c-3.3,0-5.2,2.5-5.2,5.8c0,3.4,2.2,6,5.8,6C830.8,812.5,833.4,810.5,833.4,808.5z"/>
		<path class="st1" d="M844.1,815.8l13-18.2h4.5v17.3h3.8v3.4h-3.8v7.6h-3.9v-7.6h-13.7V815.8z M857.8,814.9v-10.3
			c0-1.3,0.2-2.8,0.2-2.8h-0.1c0,0-0.6,1.3-1.4,2.3l-8,10.7v0.1H857.8z"/>
		<path class="st1" d="M884.6,803.6c0.8-1.6,1.6-2.6,1.6-2.6v-0.1c0,0-0.6,0.1-2.1,0.1h-12.6v-3.4h18.9v2.7l-12.8,25.5h-4.1
			L884.6,803.6z"/>
		<path class="st1" d="M897.9,812.7h11.7v3.4h-11.7V812.7z"/>
		<path class="st1" d="M920.3,819.5c0,0,2.2,3,6.2,3c3.3,0,6.2-2.3,6.2-5.7c0-3.4-2.8-5.8-6.4-5.8c-2.8,0-4.8,1.4-4.8,1.4l-2.3-0.8
			l1.4-14h14.2v3.4H924l-0.7,6c0,0.8-0.2,1.5-0.2,1.5h0.1c0,0,1.6-0.9,3.6-0.9c6,0,9.8,4.1,9.8,9.2c0,5.4-4.3,9.5-10,9.5
			c-5.8,0-8.6-3.9-8.6-3.9L920.3,819.5z"/>
		<path class="st1" d="M944.2,811.6c0-8.1,2.4-14.6,10-14.6c7.6,0,10,6.4,10,14.6c0,8.2-2.4,14.6-10,14.6
			C946.6,826.3,944.2,819.8,944.2,811.6z M960.1,811.6c0-6.1-1.3-10.9-6-10.9c-4.6,0-5.9,4.8-5.9,10.9c0,6.2,1.3,11,5.9,11
			C958.8,822.6,960.1,817.8,960.1,811.6z"/>
		<path class="st1" d="M972.2,811.6c0-8.1,2.4-14.6,10-14.6c7.6,0,10,6.4,10,14.6c0,8.2-2.4,14.6-10,14.6
			C974.6,826.3,972.2,819.8,972.2,811.6z M988.1,811.6c0-6.1-1.3-10.9-6-10.9c-4.6,0-5.9,4.8-5.9,10.9c0,6.2,1.3,11,5.9,11
			C986.8,822.6,988.1,817.8,988.1,811.6z"/>
		<path class="st1" d="M1000.2,811.6c0-8.1,2.4-14.6,10-14.6c7.6,0,10,6.4,10,14.6c0,8.2-2.4,14.6-10,14.6
			C1002.6,826.3,1000.2,819.8,1000.2,811.6z M1016.1,811.6c0-6.1-1.3-10.9-6-10.9c-4.6,0-5.9,4.8-5.9,10.9c0,6.2,1.3,11,5.9,11
			C1014.8,822.6,1016.1,817.8,1016.1,811.6z"/>
	</g>
</g>
</svg>
